<svg width="1308" height="776" viewBox="0 0 1308 776" fill="none" xmlns="http://www.w3.org/2000/svg">
<rect x="12" y="10" width="1280" height="748" fill="#F8F8F8"/>
<g filter="url(#filter0_dd_648_3)">
<path d="M258 81.6833H449.8V201.156H258V81.6833Z" fill="#E8E8E8"/>
</g>
<path d="M258 216.484H760V458.395H258V216.484Z" fill="#E8E8E8"/>
<path d="M775 216.484H1277V458.546H775V216.484Z" fill="#E8E8E8"/>
<path d="M775 474.59H1277V742.817H775V474.59Z" fill="#E8E8E8"/>
<path d="M258 474.59H760V742.817H258V474.59Z" fill="#E8E8E8"/>
<g filter="url(#filter1_dd_648_3)">
<path d="M465 81.6833H656.8V201.156H465V81.6833Z" fill="#E8E8E8"/>
</g>
<g filter="url(#filter2_dd_648_3)">
<path d="M671 81.6833H862.8V201.156H671V81.6833Z" fill="#E8E8E8"/>
</g>
<g filter="url(#filter3_dd_648_3)">
<path d="M878 81.6833H1069.8V201.156H878V81.6833Z" fill="#E8E8E8"/>
</g>
<g filter="url(#filter4_dd_648_3)">
<path d="M1085 81.6833H1276.8V201.156H1085V81.6833Z" fill="#E8E8E8"/>
</g>
<g filter="url(#filter5_d_648_3)">
<path d="M12 10H1292V66.1H12V10Z" fill="#071D41"/>
</g>
<g filter="url(#filter6_d_648_3)">
<path d="M12 66.1H243V758H12V66.1Z" fill="#A9A9A9"/>
</g>
<path d="M66.4124 56.8167V36.3207H75.1204C79.8618 36.3207 82.2324 39.7647 82.2324 46.6527C82.2324 48.1833 82.0924 49.5647 81.8124 50.7967C81.5324 52.01 81.1124 53.074 80.5524 53.9887C79.9924 54.9033 79.2458 55.6033 78.3124 56.0887C77.3978 56.574 76.3338 56.8167 75.1204 56.8167H66.4124ZM70.3324 53.3167H74.8124C77.1458 53.3167 78.3124 51.086 78.3124 46.6247C78.3124 45.542 78.2564 44.6087 78.1444 43.8247C78.0324 43.022 77.8831 42.3687 77.6964 41.8647C77.5098 41.342 77.2671 40.9313 76.9684 40.6327C76.6698 40.3153 76.3431 40.1007 75.9884 39.9887C75.6524 39.858 75.2604 39.7927 74.8124 39.7927H70.3324V53.3167ZM84.2235 56.8167L91.1395 36.3207H95.5915L102.255 56.8167H98.0835L96.6275 52.2807H89.9075L88.4235 56.8167H84.2235ZM90.9435 48.8087H95.7035L93.4075 41.4727L90.9435 48.8087ZM103.526 39.9327V36.3207H118.674V39.9327H112.99V56.8167H109.07V39.9327H103.526ZM120.208 56.8167L127.124 36.3207H131.576L138.24 56.8167H134.068L132.612 52.2807H125.892L124.408 56.8167H120.208ZM126.928 48.8087H131.688L129.392 41.4727L126.928 48.8087ZM140.015 43.2087V41.4447C140.015 40.6607 140.108 39.9607 140.295 39.3447C140.481 38.7287 140.733 38.2247 141.051 37.8327C141.368 37.4407 141.76 37.1233 142.227 36.8807C142.712 36.6193 143.216 36.442 143.739 36.3487C144.28 36.2367 144.887 36.1713 145.559 36.1527C146.977 36.1153 148.443 36.1807 149.955 36.3487C151.467 36.5167 152.643 36.722 153.483 36.9647V40.0447C151.355 39.858 149.068 39.7647 146.623 39.7647C145.633 39.746 144.933 39.858 144.523 40.1007C144.131 40.3247 143.935 40.8753 143.935 41.7527V42.7607C143.935 43.5447 144.093 44.0673 144.411 44.3287C144.728 44.59 145.297 44.7207 146.119 44.7207H149.367C149.852 44.7207 150.3 44.7673 150.711 44.8607C151.14 44.954 151.504 45.0847 151.803 45.2527C152.12 45.4207 152.4 45.6167 152.643 45.8407C152.904 46.0647 153.119 46.3167 153.287 46.5967C153.473 46.8767 153.623 47.166 153.735 47.4647C153.865 47.7447 153.959 48.0433 154.015 48.3607C154.089 48.678 154.136 48.986 154.155 49.2847C154.192 49.5647 154.211 49.854 154.211 50.1527V51.5247C154.211 52.4207 154.099 53.2047 153.875 53.8767C153.651 54.5487 153.361 55.0807 153.007 55.4727C152.671 55.8647 152.241 56.182 151.719 56.4247C151.215 56.6673 150.711 56.826 150.207 56.9007C149.703 56.994 149.152 57.0407 148.555 57.0407C145.176 57.0407 142.535 56.7607 140.631 56.2007V53.1207C142.684 53.326 145.064 53.4287 147.771 53.4287C148.125 53.4287 148.424 53.41 148.667 53.3727C148.928 53.3353 149.189 53.2607 149.451 53.1487C149.731 53.0367 149.936 52.8593 150.067 52.6167C150.216 52.3553 150.291 52.038 150.291 51.6647V50.5727C150.291 49.9193 150.16 49.434 149.899 49.1167C149.637 48.7993 149.152 48.6407 148.443 48.6407H145.307C141.779 48.622 140.015 46.8113 140.015 43.2087ZM156.838 47.8567V36.3207H160.758V47.8567C160.758 49.0327 160.824 49.9753 160.954 50.6847C161.085 51.394 161.318 51.954 161.654 52.3647C161.99 52.7567 162.392 53.018 162.858 53.1487C163.325 53.2793 163.95 53.3447 164.734 53.3447C165.425 53.3447 165.994 53.27 166.442 53.1207C166.89 52.9713 167.273 52.7007 167.59 52.3087C167.926 51.898 168.169 51.338 168.318 50.6287C168.468 49.9007 168.542 48.9767 168.542 47.8567V36.3207H172.49V47.8567C172.49 48.846 172.434 49.7513 172.322 50.5727C172.21 51.3753 172.07 52.0753 171.902 52.6727C171.734 53.2513 171.501 53.774 171.202 54.2407C170.922 54.7073 170.642 55.09 170.362 55.3887C170.101 55.6687 169.756 55.9207 169.326 56.1447C168.916 56.35 168.561 56.5087 168.262 56.6207C167.964 56.714 167.562 56.7887 167.058 56.8447C166.573 56.9007 166.181 56.9287 165.882 56.9287C165.602 56.9473 165.22 56.9567 164.734 56.9567C164.678 56.9567 164.585 56.9567 164.454 56.9567C163.745 56.9567 163.204 56.9473 162.83 56.9287C162.476 56.91 161.981 56.8447 161.346 56.7327C160.712 56.6207 160.217 56.462 159.862 56.2567C159.526 56.0327 159.134 55.706 158.686 55.2767C158.238 54.8287 157.902 54.2873 157.678 53.6527C157.454 53.018 157.258 52.2153 157.09 51.2447C156.922 50.2553 156.838 49.126 156.838 47.8567ZM175.124 43.2087V41.4447C175.124 40.6607 175.217 39.9607 175.404 39.3447C175.591 38.7287 175.843 38.2247 176.16 37.8327C176.477 37.4407 176.869 37.1233 177.336 36.8807C177.821 36.6193 178.325 36.442 178.848 36.3487C179.389 36.2367 179.996 36.1713 180.668 36.1527C182.087 36.1153 183.552 36.1807 185.064 36.3487C186.576 36.5167 187.752 36.722 188.592 36.9647V40.0447C186.464 39.858 184.177 39.7647 181.732 39.7647C180.743 39.746 180.043 39.858 179.632 40.1007C179.24 40.3247 179.044 40.8753 179.044 41.7527V42.7607C179.044 43.5447 179.203 44.0673 179.52 44.3287C179.837 44.59 180.407 44.7207 181.228 44.7207H184.476C184.961 44.7207 185.409 44.7673 185.82 44.8607C186.249 44.954 186.613 45.0847 186.912 45.2527C187.229 45.4207 187.509 45.6167 187.752 45.8407C188.013 46.0647 188.228 46.3167 188.396 46.5967C188.583 46.8767 188.732 47.166 188.844 47.4647C188.975 47.7447 189.068 48.0433 189.124 48.3607C189.199 48.678 189.245 48.986 189.264 49.2847C189.301 49.5647 189.32 49.854 189.32 50.1527V51.5247C189.32 52.4207 189.208 53.2047 188.984 53.8767C188.76 54.5487 188.471 55.0807 188.116 55.4727C187.78 55.8647 187.351 56.182 186.828 56.4247C186.324 56.6673 185.82 56.826 185.316 56.9007C184.812 56.994 184.261 57.0407 183.664 57.0407C180.285 57.0407 177.644 56.7607 175.74 56.2007V53.1207C177.793 53.326 180.173 53.4287 182.88 53.4287C183.235 53.4287 183.533 53.41 183.776 53.3727C184.037 53.3353 184.299 53.2607 184.56 53.1487C184.84 53.0367 185.045 52.8593 185.176 52.6167C185.325 52.3553 185.4 52.038 185.4 51.6647V50.5727C185.4 49.9193 185.269 49.434 185.008 49.1167C184.747 48.7993 184.261 48.6407 183.552 48.6407H180.416C176.888 48.622 175.124 46.8113 175.124 43.2087Z" fill="white"/>
<path d="M66.6502 32.35L67.4182 23.566H69.7582L71.2222 29.566L72.6742 23.566H75.0022L75.8182 32.35H74.1622L73.5862 26.482L72.1702 32.35H70.2982L68.8222 26.482L68.3062 32.35H66.6502ZM77.0384 32.35V23.566H78.7184V32.35H77.0384ZM79.9798 32.35V23.566H81.6838L85.1638 29.242V23.566H86.8438V32.35H85.1638L81.6718 26.734V32.35H79.9798ZM87.9806 26.518V25.762C87.9806 25.426 88.0206 25.126 88.1006 24.862C88.1806 24.598 88.2886 24.382 88.4246 24.214C88.5606 24.046 88.7286 23.91 88.9286 23.806C89.1366 23.694 89.3526 23.618 89.5766 23.578C89.8086 23.53 90.0686 23.502 90.3566 23.494C90.9646 23.478 91.5926 23.506 92.2406 23.578C92.8886 23.65 93.3926 23.738 93.7526 23.842V25.162C92.8406 25.082 91.8606 25.042 90.8126 25.042C90.3886 25.034 90.0886 25.082 89.9126 25.186C89.7446 25.282 89.6606 25.518 89.6606 25.894V26.326C89.6606 26.662 89.7286 26.886 89.8646 26.998C90.0006 27.11 90.2446 27.166 90.5966 27.166H91.9886C92.1966 27.166 92.3886 27.186 92.5646 27.226C92.7486 27.266 92.9046 27.322 93.0326 27.394C93.1686 27.466 93.2886 27.55 93.3926 27.646C93.5046 27.742 93.5966 27.85 93.6686 27.97C93.7486 28.09 93.8126 28.214 93.8606 28.342C93.9166 28.462 93.9566 28.59 93.9806 28.726C94.0126 28.862 94.0326 28.994 94.0406 29.122C94.0566 29.242 94.0646 29.366 94.0646 29.494V30.082C94.0646 30.466 94.0166 30.802 93.9206 31.09C93.8246 31.378 93.7006 31.606 93.5486 31.774C93.4046 31.942 93.2206 32.078 92.9966 32.182C92.7806 32.286 92.5646 32.354 92.3486 32.386C92.1326 32.426 91.8966 32.446 91.6406 32.446C90.1926 32.446 89.0606 32.326 88.2446 32.086V30.766C89.1246 30.854 90.1446 30.898 91.3046 30.898C91.4566 30.898 91.5846 30.89 91.6886 30.874C91.8006 30.858 91.9126 30.826 92.0246 30.778C92.1446 30.73 92.2326 30.654 92.2886 30.55C92.3526 30.438 92.3846 30.302 92.3846 30.142V29.674C92.3846 29.394 92.3286 29.186 92.2166 29.05C92.1046 28.914 91.8966 28.846 91.5926 28.846H90.2486C88.7366 28.838 87.9806 28.062 87.9806 26.518ZM94.8427 25.114V23.566H101.335V25.114H98.8987V32.35H97.2187V25.114H94.8427ZM102.28 30.622V25.39C102.28 25.094 102.32 24.834 102.4 24.61C102.48 24.386 102.584 24.21 102.712 24.082C102.84 23.954 102.988 23.85 103.156 23.77C103.332 23.682 103.5 23.626 103.66 23.602C103.828 23.578 104.004 23.566 104.188 23.566C106.252 23.622 107.54 23.686 108.052 23.758V25.15H104.584C104.432 25.15 104.312 25.166 104.224 25.198C104.136 25.23 104.072 25.286 104.032 25.366C104 25.446 103.98 25.514 103.972 25.57C103.964 25.626 103.96 25.71 103.96 25.822V27.19L107.512 27.31V28.702L103.96 28.81V30.178C103.96 30.33 103.98 30.454 104.02 30.55C104.06 30.638 104.124 30.702 104.212 30.742C104.3 30.774 104.372 30.794 104.428 30.802C104.492 30.802 104.584 30.802 104.704 30.802H108.052V32.182C107.852 32.206 107.44 32.238 106.816 32.278C106.192 32.31 105.616 32.334 105.088 32.35L104.308 32.386C104.124 32.394 103.952 32.39 103.792 32.374C103.632 32.358 103.456 32.314 103.264 32.242C103.072 32.17 102.904 32.074 102.76 31.954C102.624 31.834 102.508 31.662 102.412 31.438C102.324 31.206 102.28 30.934 102.28 30.622ZM109.005 32.35V23.566H112.845C113.205 23.566 113.525 23.614 113.805 23.71C114.085 23.798 114.333 23.946 114.549 24.154C114.773 24.354 114.945 24.638 115.065 25.006C115.185 25.366 115.245 25.798 115.245 26.302C115.245 26.718 115.209 27.082 115.137 27.394C115.065 27.706 114.985 27.946 114.897 28.114C114.809 28.274 114.689 28.418 114.537 28.546C114.385 28.666 114.269 28.742 114.189 28.774C114.109 28.806 113.993 28.846 113.841 28.894L115.509 32.35H113.613L112.161 29.026L110.685 28.858V32.35H109.005ZM110.697 27.538H112.689C112.849 27.538 112.977 27.526 113.073 27.502C113.169 27.47 113.253 27.41 113.325 27.322C113.405 27.234 113.461 27.11 113.493 26.95C113.533 26.782 113.553 26.566 113.553 26.302C113.553 25.83 113.481 25.506 113.337 25.33C113.193 25.146 112.977 25.054 112.689 25.054H110.697V27.538ZM116.402 32.35V23.566H118.082V32.35H116.402ZM119.211 28.018C119.211 27.61 119.223 27.234 119.247 26.89C119.279 26.546 119.323 26.238 119.379 25.966C119.443 25.694 119.511 25.45 119.583 25.234C119.663 25.01 119.759 24.818 119.871 24.658C119.983 24.49 120.095 24.346 120.207 24.226C120.327 24.098 120.467 23.994 120.627 23.914C120.787 23.826 120.939 23.758 121.083 23.71C121.235 23.654 121.407 23.614 121.599 23.59C121.791 23.558 121.971 23.538 122.139 23.53C122.315 23.514 122.515 23.506 122.739 23.506C123.027 23.506 123.275 23.514 123.483 23.53C123.699 23.546 123.923 23.582 124.155 23.638C124.395 23.686 124.599 23.758 124.767 23.854C124.935 23.95 125.103 24.074 125.271 24.226C125.447 24.37 125.591 24.558 125.703 24.79C125.815 25.014 125.915 25.278 126.003 25.582C126.091 25.878 126.155 26.234 126.195 26.65C126.243 27.058 126.267 27.514 126.267 28.018C126.267 28.562 126.235 29.05 126.171 29.482C126.115 29.906 126.039 30.274 125.943 30.586C125.847 30.89 125.715 31.154 125.547 31.378C125.387 31.594 125.215 31.77 125.031 31.906C124.855 32.034 124.639 32.138 124.383 32.218C124.127 32.29 123.871 32.338 123.615 32.362C123.367 32.386 123.075 32.398 122.739 32.398C122.443 32.398 122.183 32.39 121.959 32.374C121.743 32.358 121.515 32.326 121.275 32.278C121.043 32.23 120.843 32.162 120.675 32.074C120.507 31.978 120.339 31.858 120.171 31.714C120.003 31.562 119.863 31.378 119.751 31.162C119.639 30.938 119.539 30.682 119.451 30.394C119.371 30.098 119.311 29.754 119.271 29.362C119.231 28.962 119.211 28.514 119.211 28.018ZM120.891 28.018C120.891 28.514 120.907 28.922 120.939 29.242C120.971 29.554 121.023 29.822 121.095 30.046C121.175 30.27 121.291 30.438 121.443 30.55C121.595 30.662 121.767 30.742 121.959 30.79C122.159 30.83 122.419 30.85 122.739 30.85C123.235 30.85 123.607 30.778 123.855 30.634C124.103 30.49 124.287 30.218 124.407 29.818C124.527 29.41 124.587 28.81 124.587 28.018C124.587 27.562 124.571 27.174 124.539 26.854C124.515 26.526 124.467 26.254 124.395 26.038C124.323 25.814 124.243 25.638 124.155 25.51C124.075 25.382 123.959 25.286 123.807 25.222C123.655 25.15 123.499 25.106 123.339 25.09C123.187 25.066 122.987 25.054 122.739 25.054C122.531 25.054 122.359 25.062 122.223 25.078C122.095 25.086 121.955 25.11 121.803 25.15C121.659 25.19 121.543 25.254 121.455 25.342C121.375 25.422 121.291 25.534 121.203 25.678C121.123 25.822 121.063 26.002 121.023 26.218C120.983 26.426 120.951 26.678 120.927 26.974C120.903 27.27 120.891 27.618 120.891 28.018ZM131.296 32.35V23.566H135.028C137.06 23.566 138.076 25.042 138.076 27.994C138.076 28.65 138.016 29.242 137.896 29.77C137.776 30.29 137.596 30.746 137.356 31.138C137.116 31.53 136.796 31.83 136.396 32.038C136.004 32.246 135.548 32.35 135.028 32.35H131.296ZM132.976 30.85H134.896C135.896 30.85 136.396 29.894 136.396 27.982C136.396 27.518 136.372 27.118 136.324 26.782C136.276 26.438 136.212 26.158 136.132 25.942C136.052 25.718 135.948 25.542 135.82 25.414C135.692 25.278 135.552 25.186 135.4 25.138C135.256 25.082 135.088 25.054 134.896 25.054H132.976V30.85ZM138.929 32.35L141.893 23.566H143.801L146.657 32.35H144.869L144.245 30.406H141.365L140.729 32.35H138.929ZM141.809 28.918H143.849L142.865 25.774L141.809 28.918ZM151.32 26.518V25.762C151.32 25.426 151.36 25.126 151.44 24.862C151.52 24.598 151.628 24.382 151.764 24.214C151.9 24.046 152.068 23.91 152.268 23.806C152.476 23.694 152.692 23.618 152.916 23.578C153.148 23.53 153.408 23.502 153.696 23.494C154.304 23.478 154.932 23.506 155.58 23.578C156.228 23.65 156.732 23.738 157.092 23.842V25.162C156.18 25.082 155.2 25.042 154.152 25.042C153.728 25.034 153.428 25.082 153.252 25.186C153.084 25.282 153 25.518 153 25.894V26.326C153 26.662 153.068 26.886 153.204 26.998C153.34 27.11 153.584 27.166 153.936 27.166H155.328C155.536 27.166 155.728 27.186 155.904 27.226C156.088 27.266 156.244 27.322 156.372 27.394C156.508 27.466 156.628 27.55 156.732 27.646C156.844 27.742 156.936 27.85 157.008 27.97C157.088 28.09 157.152 28.214 157.2 28.342C157.256 28.462 157.296 28.59 157.32 28.726C157.352 28.862 157.372 28.994 157.38 29.122C157.396 29.242 157.404 29.366 157.404 29.494V30.082C157.404 30.466 157.356 30.802 157.26 31.09C157.164 31.378 157.04 31.606 156.888 31.774C156.744 31.942 156.56 32.078 156.336 32.182C156.12 32.286 155.904 32.354 155.688 32.386C155.472 32.426 155.236 32.446 154.98 32.446C153.532 32.446 152.4 32.326 151.584 32.086V30.766C152.464 30.854 153.484 30.898 154.644 30.898C154.796 30.898 154.924 30.89 155.028 30.874C155.14 30.858 155.252 30.826 155.364 30.778C155.484 30.73 155.572 30.654 155.628 30.55C155.692 30.438 155.724 30.302 155.724 30.142V29.674C155.724 29.394 155.668 29.186 155.556 29.05C155.444 28.914 155.236 28.846 154.932 28.846H153.588C152.076 28.838 151.32 28.062 151.32 26.518ZM158.219 32.35L161.183 23.566H163.091L165.947 32.35H164.159L163.535 30.406H160.655L160.019 32.35H158.219ZM161.099 28.918H163.139L162.155 25.774L161.099 28.918ZM166.839 28.51V23.566H168.519V28.51C168.519 29.014 168.547 29.418 168.603 29.722C168.659 30.026 168.759 30.266 168.903 30.442C169.047 30.61 169.219 30.722 169.419 30.778C169.619 30.834 169.887 30.862 170.223 30.862C170.519 30.862 170.763 30.83 170.955 30.766C171.147 30.702 171.311 30.586 171.447 30.418C171.591 30.242 171.695 30.002 171.759 29.698C171.823 29.386 171.855 28.99 171.855 28.51V23.566H173.547V28.51C173.547 28.934 173.523 29.322 173.475 29.674C173.427 30.018 173.367 30.318 173.295 30.574C173.223 30.822 173.123 31.046 172.995 31.246C172.875 31.446 172.755 31.61 172.635 31.738C172.523 31.858 172.375 31.966 172.191 32.062C172.015 32.15 171.863 32.218 171.735 32.266C171.607 32.306 171.435 32.338 171.219 32.362C171.011 32.386 170.843 32.398 170.715 32.398C170.595 32.406 170.431 32.41 170.223 32.41C170.199 32.41 170.159 32.41 170.103 32.41C169.799 32.41 169.567 32.406 169.407 32.398C169.255 32.39 169.043 32.362 168.771 32.314C168.499 32.266 168.287 32.198 168.135 32.11C167.991 32.014 167.823 31.874 167.631 31.69C167.439 31.498 167.295 31.266 167.199 30.994C167.103 30.722 167.019 30.378 166.947 29.962C166.875 29.538 166.839 29.054 166.839 28.51ZM174.808 32.35V23.566H178.54C180.572 23.566 181.588 25.042 181.588 27.994C181.588 28.65 181.528 29.242 181.408 29.77C181.288 30.29 181.108 30.746 180.868 31.138C180.628 31.53 180.308 31.83 179.908 32.038C179.516 32.246 179.06 32.35 178.54 32.35H174.808ZM176.488 30.85H178.408C179.408 30.85 179.908 29.894 179.908 27.982C179.908 27.518 179.884 27.118 179.836 26.782C179.788 26.438 179.724 26.158 179.644 25.942C179.564 25.718 179.46 25.542 179.332 25.414C179.204 25.278 179.064 25.186 178.912 25.138C178.768 25.082 178.6 25.054 178.408 25.054H176.488V30.85ZM182.729 30.622V25.39C182.729 25.094 182.769 24.834 182.849 24.61C182.929 24.386 183.033 24.21 183.161 24.082C183.289 23.954 183.437 23.85 183.605 23.77C183.781 23.682 183.949 23.626 184.109 23.602C184.277 23.578 184.453 23.566 184.637 23.566C186.701 23.622 187.989 23.686 188.501 23.758V25.15H185.033C184.881 25.15 184.761 25.166 184.673 25.198C184.585 25.23 184.521 25.286 184.481 25.366C184.449 25.446 184.429 25.514 184.421 25.57C184.413 25.626 184.409 25.71 184.409 25.822V27.19L187.961 27.31V28.702L184.409 28.81V30.178C184.409 30.33 184.429 30.454 184.469 30.55C184.509 30.638 184.573 30.702 184.661 30.742C184.749 30.774 184.821 30.794 184.877 30.802C184.941 30.802 185.033 30.802 185.153 30.802H188.501V32.182C188.301 32.206 187.889 32.238 187.265 32.278C186.641 32.31 186.065 32.334 185.537 32.35L184.757 32.386C184.573 32.394 184.401 32.39 184.241 32.374C184.081 32.358 183.905 32.314 183.713 32.242C183.521 32.17 183.353 32.074 183.209 31.954C183.073 31.834 182.957 31.662 182.861 31.438C182.773 31.206 182.729 30.934 182.729 30.622Z" fill="white" fill-opacity="0.5"/>
<path d="M464.444 54.35V36.782H467.804V54.35H464.444ZM469.967 54.35V41.606H472.655L473.327 42.974C473.727 42.67 474.007 42.47 474.167 42.374C474.343 42.262 474.615 42.11 474.983 41.918C475.351 41.71 475.719 41.574 476.087 41.51C476.471 41.43 476.895 41.39 477.359 41.39C479.903 41.39 481.175 42.878 481.175 45.854V54.35H477.815V45.806C477.815 45.198 477.687 44.758 477.431 44.486C477.191 44.214 476.847 44.078 476.399 44.078C475.951 44.078 475.551 44.126 475.199 44.222C474.863 44.302 474.551 44.422 474.263 44.582C473.991 44.726 473.679 44.926 473.327 45.182V54.35H469.967ZM482.97 48.038C482.97 47.158 483.002 46.406 483.066 45.782C483.13 45.142 483.25 44.534 483.426 43.958C483.602 43.382 483.842 42.918 484.146 42.566C484.45 42.214 484.85 41.934 485.346 41.726C485.842 41.518 486.434 41.414 487.122 41.414C487.49 41.414 487.898 41.446 488.346 41.51C488.794 41.574 489.25 41.67 489.714 41.798C490.194 41.926 490.618 42.078 490.986 42.254V35.51H494.346V54.35H491.562L490.986 53.054C490.522 53.438 489.938 53.774 489.234 54.062C488.53 54.35 487.826 54.494 487.122 54.494C486.818 54.494 486.53 54.47 486.258 54.422C485.986 54.374 485.73 54.302 485.49 54.206C485.266 54.11 485.05 53.998 484.842 53.87C484.65 53.726 484.474 53.558 484.314 53.366C484.154 53.174 484.002 52.974 483.858 52.766C483.73 52.542 483.618 52.302 483.522 52.046C483.426 51.774 483.338 51.494 483.258 51.206C483.194 50.902 483.138 50.582 483.09 50.246C483.058 49.894 483.026 49.542 482.994 49.19C482.978 48.822 482.97 48.438 482.97 48.038ZM486.33 47.918C486.33 49.278 486.466 50.238 486.738 50.798C487.01 51.342 487.434 51.614 488.01 51.614C488.602 51.614 489.146 51.55 489.642 51.422C490.154 51.278 490.602 51.086 490.986 50.846V44.534C490.762 44.438 490.53 44.366 490.29 44.318C490.066 44.254 489.834 44.206 489.594 44.174C489.354 44.126 489.098 44.094 488.826 44.078C488.57 44.062 488.298 44.054 488.01 44.054C487.77 44.054 487.57 44.086 487.41 44.15C487.25 44.198 487.098 44.31 486.954 44.486C486.81 44.646 486.69 44.87 486.594 45.158C486.514 45.43 486.45 45.798 486.402 46.262C486.354 46.71 486.33 47.262 486.33 47.918ZM496.306 39.71V37.598C496.306 37.182 496.498 36.974 496.882 36.974H499.402C499.754 36.974 499.93 37.182 499.93 37.598V39.71C499.93 39.886 499.882 40.022 499.786 40.118C499.706 40.214 499.578 40.262 499.402 40.262H496.882C496.77 40.262 496.666 40.246 496.57 40.214C496.49 40.166 496.426 40.102 496.378 40.022C496.33 39.926 496.306 39.822 496.306 39.71ZM496.426 54.35V41.606H499.786V54.35H496.426ZM501.743 47.966C501.743 46.686 501.839 45.614 502.031 44.75C502.239 43.87 502.535 43.206 502.919 42.758C503.319 42.294 503.759 41.966 504.239 41.774C504.719 41.582 505.287 41.486 505.943 41.486C508.295 41.486 510.247 41.734 511.799 42.23V44.318C510.279 44.222 508.807 44.174 507.383 44.174C506.999 44.174 506.711 44.19 506.519 44.222C506.343 44.254 506.143 44.334 505.919 44.462C505.695 44.59 505.535 44.79 505.439 45.062C505.343 45.334 505.263 45.71 505.199 46.19C505.135 46.67 505.103 47.286 505.103 48.038C505.103 49.126 505.175 49.934 505.319 50.462C505.479 50.99 505.703 51.342 505.991 51.518C506.295 51.678 506.759 51.758 507.383 51.758C508.039 51.758 508.751 51.742 509.519 51.71C510.287 51.678 510.887 51.638 511.319 51.59L511.967 51.542V53.654C511.615 53.83 511.255 53.982 510.887 54.11C510.519 54.222 510.071 54.302 509.543 54.35C509.031 54.398 508.663 54.43 508.439 54.446C508.231 54.462 507.783 54.47 507.095 54.47C506.407 54.47 506.023 54.47 505.943 54.47C504.119 54.47 502.903 53.638 502.295 51.974C501.927 50.966 501.743 49.63 501.743 47.966ZM513.435 51.11V49.91C513.435 49.414 513.499 48.966 513.627 48.566C513.771 48.166 513.987 47.798 514.275 47.462C514.563 47.126 514.947 46.87 515.427 46.694C515.923 46.502 516.507 46.406 517.179 46.406C517.803 46.406 518.419 46.414 519.027 46.43C519.651 46.43 520.283 46.422 520.923 46.406C520.939 45.878 520.939 45.606 520.923 45.59C520.923 45.254 520.883 44.982 520.803 44.774C520.739 44.566 520.627 44.406 520.467 44.294C520.307 44.182 520.131 44.11 519.939 44.078C519.747 44.046 519.507 44.03 519.219 44.03C518.179 44.03 516.395 44.118 513.867 44.294V42.23C515.291 41.67 517.227 41.382 519.675 41.366C521.147 41.366 522.283 41.678 523.083 42.302C523.883 42.91 524.283 43.966 524.283 45.47V54.35H521.619L520.923 52.958C520.859 53.07 520.651 53.246 520.299 53.486C519.963 53.71 519.483 53.942 518.859 54.182C518.235 54.406 517.627 54.51 517.035 54.494C515.883 54.462 514.995 54.118 514.371 53.462C513.747 52.79 513.435 52.006 513.435 51.11ZM516.795 50.63C516.795 51.11 516.899 51.43 517.107 51.59C517.315 51.734 517.611 51.806 517.995 51.806C518.187 51.806 518.387 51.79 518.595 51.758C518.803 51.71 518.995 51.662 519.171 51.614C519.363 51.55 519.547 51.486 519.723 51.422C519.899 51.342 520.059 51.27 520.203 51.206C520.347 51.126 520.467 51.062 520.563 51.014C520.675 50.95 520.763 50.902 520.827 50.87C520.891 50.822 520.923 50.798 520.923 50.798V48.47L517.827 48.71C517.619 48.726 517.443 48.782 517.299 48.878C517.155 48.958 517.043 49.062 516.963 49.19C516.899 49.318 516.851 49.446 516.819 49.574C516.803 49.702 516.795 49.846 516.795 50.006V50.63ZM526.048 48.038C526.048 47.158 526.08 46.406 526.144 45.782C526.208 45.142 526.328 44.534 526.504 43.958C526.68 43.382 526.92 42.918 527.224 42.566C527.528 42.214 527.928 41.934 528.424 41.726C528.92 41.518 529.512 41.414 530.2 41.414C530.568 41.414 530.976 41.446 531.424 41.51C531.872 41.574 532.328 41.67 532.792 41.798C533.272 41.926 533.696 42.078 534.064 42.254V35.51H537.424V54.35H534.64L534.064 53.054C533.6 53.438 533.016 53.774 532.312 54.062C531.608 54.35 530.904 54.494 530.2 54.494C529.896 54.494 529.608 54.47 529.336 54.422C529.064 54.374 528.808 54.302 528.568 54.206C528.344 54.11 528.128 53.998 527.92 53.87C527.728 53.726 527.552 53.558 527.392 53.366C527.232 53.174 527.08 52.974 526.936 52.766C526.808 52.542 526.696 52.302 526.6 52.046C526.504 51.774 526.416 51.494 526.336 51.206C526.272 50.902 526.216 50.582 526.168 50.246C526.136 49.894 526.104 49.542 526.072 49.19C526.056 48.822 526.048 48.438 526.048 48.038ZM529.408 47.918C529.408 49.278 529.544 50.238 529.816 50.798C530.088 51.342 530.512 51.614 531.088 51.614C531.68 51.614 532.224 51.55 532.72 51.422C533.232 51.278 533.68 51.086 534.064 50.846V44.534C533.84 44.438 533.608 44.366 533.368 44.318C533.144 44.254 532.912 44.206 532.672 44.174C532.432 44.126 532.176 44.094 531.904 44.078C531.648 44.062 531.376 44.054 531.088 44.054C530.848 44.054 530.648 44.086 530.488 44.15C530.328 44.198 530.176 44.31 530.032 44.486C529.888 44.646 529.768 44.87 529.672 45.158C529.592 45.43 529.528 45.798 529.48 46.262C529.432 46.71 529.408 47.262 529.408 47.918ZM539.384 48.158C539.384 46.846 539.48 45.766 539.672 44.918C539.864 44.07 540.2 43.39 540.68 42.878C541.16 42.366 541.752 42.006 542.456 41.798C543.176 41.59 544.088 41.486 545.192 41.486C547.384 41.486 548.896 41.966 549.728 42.926C550.576 43.886 551 45.63 551 48.158C551 50.542 550.584 52.19 549.752 53.102C548.936 54.014 547.416 54.47 545.192 54.47C544.312 54.47 543.544 54.398 542.888 54.254C542.248 54.094 541.696 53.862 541.232 53.558C540.784 53.254 540.424 52.854 540.152 52.358C539.88 51.846 539.68 51.254 539.552 50.582C539.44 49.894 539.384 49.086 539.384 48.158ZM542.744 48.158C542.744 48.974 542.784 49.622 542.864 50.102C542.944 50.582 543.088 50.95 543.296 51.206C543.52 51.446 543.768 51.598 544.04 51.662C544.312 51.726 544.696 51.758 545.192 51.758C545.624 51.758 545.952 51.742 546.176 51.71C546.416 51.678 546.64 51.598 546.848 51.47C547.072 51.342 547.232 51.142 547.328 50.87C547.44 50.598 547.52 50.254 547.568 49.838C547.616 49.406 547.64 48.846 547.64 48.158C547.64 47.422 547.616 46.83 547.568 46.382C547.536 45.918 547.472 45.534 547.376 45.23C547.28 44.91 547.128 44.686 546.92 44.558C546.712 44.414 546.48 44.318 546.224 44.27C545.968 44.206 545.624 44.174 545.192 44.174C544.84 44.174 544.552 44.19 544.328 44.222C544.104 44.254 543.888 44.326 543.68 44.438C543.472 44.534 543.312 44.67 543.2 44.846C543.104 45.006 543.016 45.238 542.936 45.542C542.856 45.846 542.8 46.206 542.768 46.622C542.752 47.038 542.744 47.55 542.744 48.158ZM553.006 54.35V41.606H555.838L556.366 43.214C557.566 42.062 558.782 41.486 560.014 41.486C560.702 41.486 561.174 41.534 561.43 41.63V44.87C560.982 44.822 560.366 44.798 559.582 44.798C558.83 44.798 558.198 44.902 557.686 45.11C557.19 45.302 556.75 45.67 556.366 46.214V54.35H553.006ZM562.822 47.918C562.822 46.814 562.886 45.894 563.014 45.158C563.158 44.406 563.358 43.79 563.614 43.31C563.87 42.814 564.23 42.438 564.694 42.182C565.158 41.926 565.67 41.75 566.23 41.654C566.806 41.558 567.526 41.51 568.39 41.51C568.966 41.51 569.454 41.526 569.854 41.558C570.254 41.574 570.654 41.622 571.054 41.702C571.47 41.766 571.806 41.87 572.062 42.014C572.318 42.142 572.566 42.326 572.806 42.566C573.046 42.79 573.23 43.07 573.358 43.406C573.502 43.726 573.606 44.118 573.67 44.582C573.75 45.03 573.79 45.55 573.79 46.142C573.79 47.262 573.494 48.078 572.902 48.59C572.31 49.102 571.422 49.358 570.238 49.358H566.182C566.182 50.094 566.286 50.646 566.494 51.014C566.718 51.366 566.99 51.582 567.31 51.662C567.646 51.742 568.166 51.782 568.87 51.782C570.838 51.782 572.398 51.694 573.55 51.518V53.798C572.35 54.246 570.174 54.47 567.022 54.47C566.206 54.47 565.526 54.35 564.982 54.11C564.454 53.87 564.03 53.478 563.71 52.934C563.39 52.39 563.158 51.718 563.014 50.918C562.886 50.118 562.822 49.118 562.822 47.918ZM566.182 46.934H569.374C570.078 46.934 570.43 46.614 570.43 45.974C570.43 45.174 570.318 44.662 570.094 44.438C569.886 44.198 569.382 44.078 568.582 44.078C568.07 44.078 567.686 44.102 567.43 44.15C567.19 44.182 566.95 44.294 566.71 44.486C566.486 44.662 566.334 44.942 566.254 45.326C566.19 45.71 566.166 46.246 566.182 46.934ZM575.263 46.022V44.918C575.263 42.63 576.367 41.486 578.575 41.486C582.367 41.486 584.639 41.702 585.391 42.134V44.246H579.607C579.399 44.246 579.223 44.262 579.079 44.294C578.951 44.326 578.855 44.382 578.791 44.462C578.727 44.542 578.679 44.63 578.647 44.726C578.631 44.822 578.623 44.958 578.623 45.134V45.71C578.623 46.078 578.703 46.31 578.863 46.406C579.023 46.486 579.271 46.526 579.607 46.526H582.631C583.223 46.526 583.735 46.614 584.167 46.79C584.615 46.95 584.967 47.182 585.223 47.486C585.495 47.79 585.695 48.142 585.823 48.542C585.951 48.926 586.015 49.35 586.015 49.814V51.134C586.015 53.054 585.207 54.15 583.591 54.422C583.367 54.454 583.135 54.47 582.895 54.47C578.863 54.47 576.495 54.238 575.791 53.774V51.686H581.815C582.375 51.686 582.655 51.414 582.655 50.87V50.27C582.655 50.078 582.631 49.926 582.583 49.814C582.551 49.702 582.471 49.614 582.343 49.55C582.215 49.486 582.039 49.454 581.815 49.454H578.839C577.671 49.454 576.783 49.182 576.175 48.638C575.567 48.094 575.263 47.222 575.263 46.022ZM595.423 48.038C595.423 47.158 595.455 46.406 595.519 45.782C595.583 45.142 595.703 44.534 595.879 43.958C596.055 43.382 596.295 42.918 596.599 42.566C596.903 42.214 597.303 41.934 597.799 41.726C598.295 41.518 598.887 41.414 599.575 41.414C599.943 41.414 600.351 41.446 600.799 41.51C601.247 41.574 601.703 41.67 602.167 41.798C602.647 41.926 603.071 42.078 603.439 42.254V35.51H606.799V54.35H604.015L603.439 53.054C602.975 53.438 602.391 53.774 601.687 54.062C600.983 54.35 600.279 54.494 599.575 54.494C599.271 54.494 598.983 54.47 598.711 54.422C598.439 54.374 598.183 54.302 597.943 54.206C597.719 54.11 597.503 53.998 597.295 53.87C597.103 53.726 596.927 53.558 596.767 53.366C596.607 53.174 596.455 52.974 596.311 52.766C596.183 52.542 596.071 52.302 595.975 52.046C595.879 51.774 595.791 51.494 595.711 51.206C595.647 50.902 595.591 50.582 595.543 50.246C595.511 49.894 595.479 49.542 595.447 49.19C595.431 48.822 595.423 48.438 595.423 48.038ZM598.783 47.918C598.783 49.278 598.919 50.238 599.191 50.798C599.463 51.342 599.887 51.614 600.463 51.614C601.055 51.614 601.599 51.55 602.095 51.422C602.607 51.278 603.055 51.086 603.439 50.846V44.534C603.215 44.438 602.983 44.366 602.743 44.318C602.519 44.254 602.287 44.206 602.047 44.174C601.807 44.126 601.551 44.094 601.279 44.078C601.023 44.062 600.751 44.054 600.463 44.054C600.223 44.054 600.023 44.086 599.863 44.15C599.703 44.198 599.551 44.31 599.407 44.486C599.263 44.646 599.143 44.87 599.047 45.158C598.967 45.43 598.903 45.798 598.855 46.262C598.807 46.71 598.783 47.262 598.783 47.918ZM608.759 47.918C608.759 46.814 608.823 45.894 608.951 45.158C609.095 44.406 609.295 43.79 609.551 43.31C609.807 42.814 610.167 42.438 610.631 42.182C611.095 41.926 611.607 41.75 612.167 41.654C612.743 41.558 613.463 41.51 614.327 41.51C614.903 41.51 615.391 41.526 615.791 41.558C616.191 41.574 616.591 41.622 616.991 41.702C617.407 41.766 617.743 41.87 617.999 42.014C618.255 42.142 618.503 42.326 618.743 42.566C618.983 42.79 619.167 43.07 619.295 43.406C619.439 43.726 619.543 44.118 619.607 44.582C619.687 45.03 619.727 45.55 619.727 46.142C619.727 47.262 619.431 48.078 618.839 48.59C618.247 49.102 617.359 49.358 616.175 49.358H612.119C612.119 50.094 612.223 50.646 612.431 51.014C612.655 51.366 612.927 51.582 613.247 51.662C613.583 51.742 614.103 51.782 614.807 51.782C616.775 51.782 618.335 51.694 619.487 51.518V53.798C618.287 54.246 616.111 54.47 612.959 54.47C612.143 54.47 611.463 54.35 610.919 54.11C610.391 53.87 609.967 53.478 609.647 52.934C609.327 52.39 609.095 51.718 608.951 50.918C608.823 50.118 608.759 49.118 608.759 47.918ZM612.119 46.934H615.311C616.015 46.934 616.367 46.614 616.367 45.974C616.367 45.174 616.255 44.662 616.031 44.438C615.823 44.198 615.319 44.078 614.519 44.078C614.007 44.078 613.623 44.102 613.367 44.15C613.127 44.182 612.887 44.294 612.647 44.486C612.423 44.662 612.271 44.942 612.191 45.326C612.127 45.71 612.103 46.246 612.119 46.934ZM629.461 42.686V41.174C629.461 40.502 629.541 39.902 629.701 39.374C629.861 38.846 630.077 38.414 630.349 38.078C630.621 37.742 630.957 37.47 631.357 37.262C631.773 37.038 632.205 36.886 632.653 36.806C633.117 36.71 633.637 36.654 634.213 36.638C635.429 36.606 636.685 36.662 637.981 36.806C639.277 36.95 640.285 37.126 641.005 37.334V39.974C639.181 39.814 637.221 39.734 635.125 39.734C634.277 39.718 633.677 39.814 633.325 40.022C632.989 40.214 632.821 40.686 632.821 41.438V42.302C632.821 42.974 632.957 43.422 633.229 43.646C633.501 43.87 633.989 43.982 634.693 43.982H637.477C637.893 43.982 638.277 44.022 638.629 44.102C638.997 44.182 639.309 44.294 639.565 44.438C639.837 44.582 640.077 44.75 640.285 44.942C640.509 45.134 640.693 45.35 640.837 45.59C640.997 45.83 641.125 46.078 641.221 46.334C641.333 46.574 641.413 46.83 641.461 47.102C641.525 47.374 641.565 47.638 641.581 47.894C641.613 48.134 641.629 48.382 641.629 48.638V49.814C641.629 50.582 641.533 51.254 641.341 51.83C641.149 52.406 640.901 52.862 640.597 53.198C640.309 53.534 639.941 53.806 639.493 54.014C639.061 54.222 638.629 54.358 638.197 54.422C637.765 54.502 637.293 54.542 636.781 54.542C633.885 54.542 631.621 54.302 629.989 53.822V51.182C631.749 51.358 633.789 51.446 636.109 51.446C636.413 51.446 636.669 51.43 636.877 51.398C637.101 51.366 637.325 51.302 637.549 51.206C637.789 51.11 637.965 50.958 638.077 50.75C638.205 50.526 638.269 50.254 638.269 49.934V48.998C638.269 48.438 638.157 48.022 637.933 47.75C637.709 47.478 637.293 47.342 636.685 47.342H633.997C630.973 47.326 629.461 45.774 629.461 42.686ZM643.161 51.11V49.91C643.161 49.414 643.225 48.966 643.353 48.566C643.497 48.166 643.713 47.798 644.001 47.462C644.289 47.126 644.673 46.87 645.153 46.694C645.649 46.502 646.233 46.406 646.905 46.406C647.529 46.406 648.145 46.414 648.753 46.43C649.377 46.43 650.009 46.422 650.649 46.406C650.665 45.878 650.665 45.606 650.649 45.59C650.649 45.254 650.609 44.982 650.529 44.774C650.465 44.566 650.353 44.406 650.193 44.294C650.033 44.182 649.857 44.11 649.665 44.078C649.473 44.046 649.233 44.03 648.945 44.03C647.905 44.03 646.121 44.118 643.593 44.294V42.23C645.017 41.67 646.953 41.382 649.401 41.366C650.873 41.366 652.009 41.678 652.809 42.302C653.609 42.91 654.009 43.966 654.009 45.47V54.35H651.345L650.649 52.958C650.585 53.07 650.377 53.246 650.025 53.486C649.689 53.71 649.209 53.942 648.585 54.182C647.961 54.406 647.353 54.51 646.761 54.494C645.609 54.462 644.721 54.118 644.097 53.462C643.473 52.79 643.161 52.006 643.161 51.11ZM646.521 50.63C646.521 51.11 646.625 51.43 646.833 51.59C647.041 51.734 647.337 51.806 647.721 51.806C647.913 51.806 648.113 51.79 648.321 51.758C648.529 51.71 648.721 51.662 648.897 51.614C649.089 51.55 649.273 51.486 649.449 51.422C649.625 51.342 649.785 51.27 649.929 51.206C650.073 51.126 650.193 51.062 650.289 51.014C650.401 50.95 650.489 50.902 650.553 50.87C650.617 50.822 650.649 50.798 650.649 50.798V48.47L647.553 48.71C647.345 48.726 647.169 48.782 647.025 48.878C646.881 48.958 646.769 49.062 646.689 49.19C646.625 49.318 646.577 49.446 646.545 49.574C646.529 49.702 646.521 49.846 646.521 50.006V50.63ZM660.311 40.046L662.471 36.734H665.423L662.495 40.046H660.311ZM655.799 50.078V41.606H659.159V50.15C659.159 51.286 659.631 51.854 660.575 51.854C661.215 51.854 661.751 51.774 662.183 51.614C662.631 51.454 663.119 51.166 663.647 50.75V41.606H667.007V54.35H664.295L663.647 53.006C663.503 53.086 663.303 53.206 663.047 53.366C662.791 53.526 662.591 53.646 662.447 53.726C662.303 53.822 662.119 53.934 661.895 54.062C661.655 54.174 661.431 54.262 661.223 54.326C660.727 54.486 660.183 54.566 659.591 54.566C657.063 54.566 655.799 53.07 655.799 50.078ZM668.97 48.038C668.97 47.158 669.002 46.406 669.066 45.782C669.13 45.142 669.25 44.534 669.426 43.958C669.602 43.382 669.842 42.918 670.146 42.566C670.45 42.214 670.85 41.934 671.346 41.726C671.842 41.518 672.434 41.414 673.122 41.414C673.49 41.414 673.898 41.446 674.346 41.51C674.794 41.574 675.25 41.67 675.714 41.798C676.194 41.926 676.618 42.078 676.986 42.254V35.51H680.346V54.35H677.562L676.986 53.054C676.522 53.438 675.938 53.774 675.234 54.062C674.53 54.35 673.826 54.494 673.122 54.494C672.818 54.494 672.53 54.47 672.258 54.422C671.986 54.374 671.73 54.302 671.49 54.206C671.266 54.11 671.05 53.998 670.842 53.87C670.65 53.726 670.474 53.558 670.314 53.366C670.154 53.174 670.002 52.974 669.858 52.766C669.73 52.542 669.618 52.302 669.522 52.046C669.426 51.774 669.338 51.494 669.258 51.206C669.194 50.902 669.138 50.582 669.09 50.246C669.058 49.894 669.026 49.542 668.994 49.19C668.978 48.822 668.97 48.438 668.97 48.038ZM672.33 47.918C672.33 49.278 672.466 50.238 672.738 50.798C673.01 51.342 673.434 51.614 674.01 51.614C674.602 51.614 675.146 51.55 675.642 51.422C676.154 51.278 676.602 51.086 676.986 50.846V44.534C676.762 44.438 676.53 44.366 676.29 44.318C676.066 44.254 675.834 44.206 675.594 44.174C675.354 44.126 675.098 44.094 674.826 44.078C674.57 44.062 674.298 44.054 674.01 44.054C673.77 44.054 673.57 44.086 673.41 44.15C673.25 44.198 673.098 44.31 672.954 44.486C672.81 44.646 672.69 44.87 672.594 45.158C672.514 45.43 672.45 45.798 672.402 46.262C672.354 46.71 672.33 47.262 672.33 47.918ZM682.306 47.918C682.306 46.814 682.37 45.894 682.498 45.158C682.642 44.406 682.842 43.79 683.098 43.31C683.354 42.814 683.714 42.438 684.178 42.182C684.642 41.926 685.154 41.75 685.714 41.654C686.29 41.558 687.01 41.51 687.874 41.51C688.45 41.51 688.938 41.526 689.338 41.558C689.738 41.574 690.138 41.622 690.538 41.702C690.954 41.766 691.29 41.87 691.546 42.014C691.802 42.142 692.05 42.326 692.29 42.566C692.53 42.79 692.714 43.07 692.842 43.406C692.986 43.726 693.09 44.118 693.154 44.582C693.234 45.03 693.274 45.55 693.274 46.142C693.274 47.262 692.978 48.078 692.386 48.59C691.794 49.102 690.906 49.358 689.722 49.358H685.666C685.666 50.094 685.77 50.646 685.978 51.014C686.202 51.366 686.474 51.582 686.794 51.662C687.13 51.742 687.65 51.782 688.354 51.782C690.322 51.782 691.882 51.694 693.034 51.518V53.798C691.834 54.246 689.658 54.47 686.506 54.47C685.69 54.47 685.01 54.35 684.466 54.11C683.938 53.87 683.514 53.478 683.194 52.934C682.874 52.39 682.642 51.718 682.498 50.918C682.37 50.118 682.306 49.118 682.306 47.918ZM685.666 46.934H688.858C689.562 46.934 689.914 46.614 689.914 45.974C689.914 45.174 689.802 44.662 689.578 44.438C689.37 44.198 688.866 44.078 688.066 44.078C687.554 44.078 687.17 44.102 686.914 44.15C686.674 44.182 686.434 44.294 686.194 44.486C685.97 44.662 685.818 44.942 685.738 45.326C685.674 45.71 685.65 46.246 685.666 46.934ZM703.056 54.35V36.782H710.616C711.112 36.782 711.56 36.822 711.96 36.902C712.376 36.966 712.808 37.11 713.256 37.334C713.72 37.558 714.104 37.862 714.408 38.246C714.728 38.63 714.984 39.158 715.176 39.83C715.384 40.502 715.488 41.294 715.488 42.206C715.488 42.846 715.44 43.438 715.344 43.982C715.264 44.526 715.152 44.99 715.008 45.374C714.864 45.742 714.688 46.078 714.48 46.382C714.272 46.67 714.048 46.902 713.808 47.078C713.568 47.238 713.312 47.382 713.04 47.51C712.768 47.638 712.496 47.726 712.224 47.774C711.952 47.806 711.68 47.838 711.408 47.87C711.136 47.886 710.872 47.886 710.616 47.87C710.152 47.838 709.352 47.758 708.216 47.63C707.08 47.502 706.48 47.422 706.416 47.39V54.35H703.056ZM706.416 44.894H710.352C710.928 44.894 711.36 44.702 711.648 44.318C711.952 43.934 712.104 43.238 712.104 42.23C712.088 40.582 711.504 39.758 710.352 39.758H706.416V44.894ZM721.694 40.046L723.854 36.734H726.806L723.878 40.046H721.694ZM717.182 50.078V41.606H720.542V50.15C720.542 51.286 721.014 51.854 721.958 51.854C722.598 51.854 723.134 51.774 723.566 51.614C724.014 51.454 724.502 51.166 725.03 50.75V41.606H728.39V54.35H725.678L725.03 53.006C724.886 53.086 724.686 53.206 724.43 53.366C724.174 53.526 723.974 53.646 723.83 53.726C723.686 53.822 723.502 53.934 723.278 54.062C723.038 54.174 722.814 54.262 722.606 54.326C722.11 54.486 721.566 54.566 720.974 54.566C718.446 54.566 717.182 53.07 717.182 50.078ZM730.545 54.35V35.51H733.881V42.254C734.153 42.11 734.465 41.99 734.817 41.894C735.169 41.782 735.513 41.694 735.849 41.63C736.185 41.566 736.513 41.518 736.833 41.486C737.169 41.438 737.473 41.414 737.745 41.414C738.433 41.414 739.025 41.526 739.521 41.75C740.033 41.958 740.441 42.246 740.745 42.614C741.049 42.966 741.289 43.43 741.465 44.006C741.641 44.582 741.753 45.182 741.801 45.806C741.865 46.43 741.897 47.174 741.897 48.038C741.897 50.102 741.577 51.694 740.937 52.814C740.297 53.934 739.233 54.494 737.745 54.494C737.057 54.494 736.361 54.35 735.657 54.062C734.953 53.774 734.369 53.438 733.905 53.054L733.305 54.35H730.545ZM733.905 50.846C734.721 51.358 735.713 51.614 736.881 51.614C737.249 51.614 737.553 51.51 737.793 51.302C738.033 51.078 738.217 50.694 738.345 50.15C738.473 49.59 738.537 48.846 738.537 47.918C738.537 46.862 738.465 46.046 738.321 45.47C738.193 44.894 738.017 44.518 737.793 44.342C737.569 44.15 737.265 44.054 736.881 44.054C736.289 44.054 735.753 44.094 735.273 44.174C734.793 44.238 734.337 44.358 733.905 44.534V50.846ZM743.881 49.814V35.558H747.241V49.286C747.241 50.134 747.329 50.726 747.505 51.062C747.681 51.398 747.961 51.638 748.345 51.782C749.305 52.118 749.841 52.286 749.953 52.286V54.35H747.169C746.641 54.35 746.177 54.27 745.777 54.11C745.377 53.95 745.033 53.702 744.745 53.366C744.457 53.014 744.241 52.542 744.097 51.95C743.953 51.358 743.881 50.646 743.881 49.814ZM751.212 39.71V37.598C751.212 37.182 751.404 36.974 751.788 36.974H754.308C754.66 36.974 754.836 37.182 754.836 37.598V39.71C754.836 39.886 754.788 40.022 754.692 40.118C754.612 40.214 754.484 40.262 754.308 40.262H751.788C751.676 40.262 751.572 40.246 751.476 40.214C751.396 40.166 751.332 40.102 751.284 40.022C751.236 39.926 751.212 39.822 751.212 39.71ZM751.332 54.35V41.606H754.692V54.35H751.332ZM756.65 47.966C756.65 46.686 756.746 45.614 756.938 44.75C757.146 43.87 757.442 43.206 757.826 42.758C758.226 42.294 758.666 41.966 759.146 41.774C759.626 41.582 760.194 41.486 760.85 41.486C763.202 41.486 765.154 41.734 766.706 42.23V44.318C765.186 44.222 763.714 44.174 762.29 44.174C761.906 44.174 761.618 44.19 761.426 44.222C761.25 44.254 761.05 44.334 760.826 44.462C760.602 44.59 760.442 44.79 760.346 45.062C760.25 45.334 760.17 45.71 760.106 46.19C760.042 46.67 760.01 47.286 760.01 48.038C760.01 49.126 760.082 49.934 760.226 50.462C760.386 50.99 760.61 51.342 760.898 51.518C761.202 51.678 761.666 51.758 762.29 51.758C762.946 51.758 763.658 51.742 764.426 51.71C765.194 51.678 765.794 51.638 766.226 51.59L766.874 51.542V53.654C766.522 53.83 766.162 53.982 765.794 54.11C765.426 54.222 764.978 54.302 764.45 54.35C763.938 54.398 763.57 54.43 763.346 54.446C763.138 54.462 762.69 54.47 762.002 54.47C761.314 54.47 760.93 54.47 760.85 54.47C759.026 54.47 757.81 53.638 757.202 51.974C756.834 50.966 756.65 49.63 756.65 47.966ZM768.341 51.11V49.91C768.341 49.414 768.405 48.966 768.533 48.566C768.677 48.166 768.893 47.798 769.181 47.462C769.469 47.126 769.853 46.87 770.333 46.694C770.829 46.502 771.413 46.406 772.085 46.406C772.709 46.406 773.325 46.414 773.933 46.43C774.557 46.43 775.189 46.422 775.829 46.406C775.845 45.878 775.845 45.606 775.829 45.59C775.829 45.254 775.789 44.982 775.709 44.774C775.645 44.566 775.533 44.406 775.373 44.294C775.213 44.182 775.037 44.11 774.845 44.078C774.653 44.046 774.413 44.03 774.125 44.03C773.085 44.03 771.301 44.118 768.773 44.294V42.23C770.197 41.67 772.133 41.382 774.581 41.366C776.053 41.366 777.189 41.678 777.989 42.302C778.789 42.91 779.189 43.966 779.189 45.47V54.35H776.525L775.829 52.958C775.765 53.07 775.557 53.246 775.205 53.486C774.869 53.71 774.389 53.942 773.765 54.182C773.141 54.406 772.533 54.51 771.941 54.494C770.789 54.462 769.901 54.118 769.277 53.462C768.653 52.79 768.341 52.006 768.341 51.11ZM771.701 50.63C771.701 51.11 771.805 51.43 772.013 51.59C772.221 51.734 772.517 51.806 772.901 51.806C773.093 51.806 773.293 51.79 773.501 51.758C773.709 51.71 773.901 51.662 774.077 51.614C774.269 51.55 774.453 51.486 774.629 51.422C774.805 51.342 774.965 51.27 775.109 51.206C775.253 51.126 775.373 51.062 775.469 51.014C775.581 50.95 775.669 50.902 775.733 50.87C775.797 50.822 775.829 50.798 775.829 50.798V48.47L772.733 48.71C772.525 48.726 772.349 48.782 772.205 48.878C772.061 48.958 771.949 49.062 771.869 49.19C771.805 49.318 771.757 49.446 771.725 49.574C771.709 49.702 771.701 49.846 771.701 50.006V50.63ZM788.759 48.038C788.759 47.158 788.791 46.406 788.855 45.782C788.919 45.142 789.039 44.534 789.215 43.958C789.391 43.382 789.631 42.918 789.935 42.566C790.239 42.214 790.639 41.934 791.135 41.726C791.631 41.518 792.223 41.414 792.911 41.414C793.279 41.414 793.687 41.446 794.135 41.51C794.583 41.574 795.039 41.67 795.503 41.798C795.983 41.926 796.407 42.078 796.775 42.254V35.51H800.135V54.35H797.351L796.775 53.054C796.311 53.438 795.727 53.774 795.023 54.062C794.319 54.35 793.615 54.494 792.911 54.494C792.607 54.494 792.319 54.47 792.047 54.422C791.775 54.374 791.519 54.302 791.279 54.206C791.055 54.11 790.839 53.998 790.631 53.87C790.439 53.726 790.263 53.558 790.103 53.366C789.943 53.174 789.791 52.974 789.647 52.766C789.519 52.542 789.407 52.302 789.311 52.046C789.215 51.774 789.127 51.494 789.047 51.206C788.983 50.902 788.927 50.582 788.879 50.246C788.847 49.894 788.815 49.542 788.783 49.19C788.767 48.822 788.759 48.438 788.759 48.038ZM792.119 47.918C792.119 49.278 792.255 50.238 792.527 50.798C792.799 51.342 793.223 51.614 793.799 51.614C794.391 51.614 794.935 51.55 795.431 51.422C795.943 51.278 796.391 51.086 796.775 50.846V44.534C796.551 44.438 796.319 44.366 796.079 44.318C795.855 44.254 795.623 44.206 795.383 44.174C795.143 44.126 794.887 44.094 794.615 44.078C794.359 44.062 794.087 44.054 793.799 44.054C793.559 44.054 793.359 44.086 793.199 44.15C793.039 44.198 792.887 44.31 792.743 44.486C792.599 44.646 792.479 44.87 792.383 45.158C792.303 45.43 792.239 45.798 792.191 46.262C792.143 46.71 792.119 47.262 792.119 47.918ZM801.927 51.11V49.91C801.927 49.414 801.991 48.966 802.119 48.566C802.263 48.166 802.479 47.798 802.767 47.462C803.055 47.126 803.439 46.87 803.919 46.694C804.415 46.502 804.999 46.406 805.671 46.406C806.295 46.406 806.911 46.414 807.519 46.43C808.143 46.43 808.775 46.422 809.415 46.406C809.431 45.878 809.431 45.606 809.415 45.59C809.415 45.254 809.375 44.982 809.295 44.774C809.231 44.566 809.119 44.406 808.959 44.294C808.799 44.182 808.623 44.11 808.431 44.078C808.239 44.046 807.999 44.03 807.711 44.03C806.671 44.03 804.887 44.118 802.359 44.294V42.23C803.783 41.67 805.719 41.382 808.167 41.366C809.639 41.366 810.775 41.678 811.575 42.302C812.375 42.91 812.775 43.966 812.775 45.47V54.35H810.111L809.415 52.958C809.351 53.07 809.143 53.246 808.791 53.486C808.455 53.71 807.975 53.942 807.351 54.182C806.727 54.406 806.119 54.51 805.527 54.494C804.375 54.462 803.487 54.118 802.863 53.462C802.239 52.79 801.927 52.006 801.927 51.11ZM805.287 50.63C805.287 51.11 805.391 51.43 805.599 51.59C805.807 51.734 806.103 51.806 806.487 51.806C806.679 51.806 806.879 51.79 807.087 51.758C807.295 51.71 807.487 51.662 807.663 51.614C807.855 51.55 808.039 51.486 808.215 51.422C808.391 51.342 808.551 51.27 808.695 51.206C808.839 51.126 808.959 51.062 809.055 51.014C809.167 50.95 809.255 50.902 809.319 50.87C809.383 50.822 809.415 50.798 809.415 50.798V48.47L806.319 48.71C806.111 48.726 805.935 48.782 805.791 48.878C805.647 48.958 805.535 49.062 805.455 49.19C805.391 49.318 805.343 49.446 805.311 49.574C805.295 49.702 805.287 49.846 805.287 50.006V50.63ZM822.681 54.35V36.782H830.361C831.081 36.782 831.721 36.878 832.281 37.07C832.841 37.246 833.337 37.542 833.769 37.958C834.217 38.358 834.561 38.926 834.801 39.662C835.041 40.382 835.161 41.246 835.161 42.254C835.161 43.086 835.089 43.814 834.945 44.438C834.801 45.062 834.641 45.542 834.465 45.878C834.289 46.198 834.049 46.486 833.745 46.742C833.441 46.982 833.209 47.134 833.049 47.198C832.889 47.262 832.657 47.342 832.353 47.438L835.689 54.35H831.897L828.993 47.702L826.041 47.366V54.35H822.681ZM826.065 44.726H830.049C830.369 44.726 830.625 44.702 830.817 44.654C831.009 44.59 831.177 44.47 831.321 44.294C831.481 44.118 831.593 43.87 831.657 43.55C831.737 43.214 831.777 42.782 831.777 42.254C831.777 41.31 831.633 40.662 831.345 40.31C831.057 39.942 830.625 39.758 830.049 39.758H826.065V44.726ZM836.923 47.918C836.923 46.814 836.987 45.894 837.115 45.158C837.259 44.406 837.459 43.79 837.715 43.31C837.971 42.814 838.331 42.438 838.795 42.182C839.259 41.926 839.771 41.75 840.331 41.654C840.907 41.558 841.627 41.51 842.491 41.51C843.067 41.51 843.555 41.526 843.955 41.558C844.355 41.574 844.755 41.622 845.155 41.702C845.571 41.766 845.907 41.87 846.163 42.014C846.419 42.142 846.667 42.326 846.907 42.566C847.147 42.79 847.331 43.07 847.459 43.406C847.603 43.726 847.707 44.118 847.771 44.582C847.851 45.03 847.891 45.55 847.891 46.142C847.891 47.262 847.595 48.078 847.003 48.59C846.411 49.102 845.523 49.358 844.339 49.358H840.283C840.283 50.094 840.387 50.646 840.595 51.014C840.819 51.366 841.091 51.582 841.411 51.662C841.747 51.742 842.267 51.782 842.971 51.782C844.939 51.782 846.499 51.694 847.651 51.518V53.798C846.451 54.246 844.275 54.47 841.123 54.47C840.307 54.47 839.627 54.35 839.083 54.11C838.555 53.87 838.131 53.478 837.811 52.934C837.491 52.39 837.259 51.718 837.115 50.918C836.987 50.118 836.923 49.118 836.923 47.918ZM840.283 46.934H843.475C844.179 46.934 844.531 46.614 844.531 45.974C844.531 45.174 844.419 44.662 844.195 44.438C843.987 44.198 843.483 44.078 842.683 44.078C842.171 44.078 841.787 44.102 841.531 44.15C841.291 44.182 841.051 44.294 840.811 44.486C840.587 44.662 840.435 44.942 840.355 45.326C840.291 45.71 840.267 46.246 840.283 46.934ZM849.485 51.902C849.485 51.358 849.605 50.886 849.845 50.486C850.101 50.07 850.477 49.782 850.973 49.622C850.845 49.542 850.725 49.446 850.613 49.334C850.501 49.222 850.397 49.102 850.301 48.974C850.221 48.846 850.141 48.71 850.061 48.566C849.997 48.406 849.933 48.246 849.869 48.086C849.821 47.926 849.773 47.766 849.725 47.606C849.693 47.43 849.661 47.262 849.629 47.102C849.613 46.926 849.597 46.758 849.581 46.598C849.581 46.422 849.581 46.254 849.581 46.094C849.581 43.07 851.053 41.558 853.997 41.558H861.749V43.574L860.333 44.006C860.333 44.006 860.357 44.07 860.405 44.198C860.453 44.31 860.477 44.382 860.477 44.414C860.493 44.43 860.517 44.494 860.549 44.606C860.597 44.718 860.629 44.806 860.645 44.87C860.661 44.934 860.677 45.03 860.693 45.158C860.725 45.286 860.741 45.414 860.741 45.542C860.757 45.654 860.773 45.798 860.789 45.974C860.805 46.134 860.813 46.31 860.813 46.502C860.813 46.742 860.797 46.982 860.765 47.222C860.733 47.446 860.685 47.686 860.621 47.942C860.557 48.198 860.469 48.438 860.357 48.662C860.261 48.886 860.133 49.11 859.973 49.334C859.813 49.542 859.621 49.734 859.397 49.91C859.173 50.086 858.917 50.238 858.629 50.366C858.357 50.494 858.029 50.598 857.645 50.678C857.277 50.742 856.877 50.774 856.445 50.774H853.493C853.317 50.774 853.173 50.782 853.061 50.798C852.949 50.814 852.829 50.87 852.701 50.966C852.589 51.046 852.533 51.166 852.533 51.326C852.533 51.582 852.613 51.758 852.773 51.854C852.949 51.934 853.189 51.974 853.493 51.974H857.405C858.589 51.974 859.509 52.294 860.165 52.934C860.837 53.558 861.173 54.502 861.173 55.766V57.134C861.173 57.374 861.157 57.598 861.125 57.806C861.093 58.03 861.045 58.254 860.981 58.478C860.933 58.702 860.853 58.91 860.741 59.102C860.629 59.31 860.501 59.502 860.357 59.678C860.213 59.854 860.037 60.006 859.829 60.134C859.621 60.278 859.389 60.398 859.133 60.494C858.877 60.606 858.581 60.686 858.245 60.734C857.925 60.798 857.573 60.83 857.189 60.83H853.589C852.805 60.83 852.117 60.702 851.525 60.446C850.949 60.19 850.485 59.774 850.133 59.198C849.781 58.638 849.605 57.95 849.605 57.134V55.526L850.733 54.35C850.557 54.254 850.397 54.134 850.253 53.99C850.109 53.83 849.973 53.646 849.845 53.438C849.733 53.23 849.645 52.998 849.581 52.742C849.517 52.47 849.485 52.19 849.485 51.902ZM852.989 56.726C852.989 57.03 853.021 57.278 853.085 57.47C853.165 57.662 853.277 57.806 853.421 57.902C853.581 57.998 853.733 58.062 853.877 58.094C854.037 58.126 854.245 58.142 854.501 58.142H856.469C856.773 58.142 857.013 58.102 857.189 58.022C857.381 57.958 857.517 57.862 857.597 57.734C857.693 57.606 857.757 57.47 857.789 57.326C857.821 57.182 857.837 57.006 857.837 56.798V55.862C857.837 55.766 857.829 55.678 857.813 55.598C857.797 55.518 857.781 55.438 857.765 55.358C857.749 55.294 857.717 55.23 857.669 55.166C857.637 55.118 857.597 55.062 857.549 54.998C857.501 54.95 857.445 54.91 857.381 54.878C857.317 54.846 857.245 54.814 857.165 54.782C857.085 54.75 856.997 54.726 856.901 54.71C856.805 54.694 856.701 54.686 856.589 54.686H853.997L852.989 54.614V56.726ZM852.941 46.094C852.941 47.406 853.453 48.062 854.477 48.062H855.821C856.925 48.062 857.469 47.406 857.453 46.094C857.437 45.422 857.301 44.95 857.045 44.678C856.805 44.39 856.389 44.246 855.797 44.246H854.525C854.189 44.246 853.909 44.302 853.685 44.414C853.477 44.51 853.317 44.654 853.205 44.846C853.109 45.022 853.037 45.206 852.989 45.398C852.957 45.59 852.941 45.822 852.941 46.094ZM862.962 39.71V37.598C862.962 37.182 863.154 36.974 863.538 36.974H866.058C866.41 36.974 866.586 37.182 866.586 37.598V39.71C866.586 39.886 866.538 40.022 866.442 40.118C866.362 40.214 866.234 40.262 866.058 40.262H863.538C863.426 40.262 863.322 40.246 863.226 40.214C863.146 40.166 863.082 40.102 863.034 40.022C862.986 39.926 862.962 39.822 862.962 39.71ZM863.082 54.35V41.606H866.442V54.35H863.082ZM875.24 37.766C875.848 37.766 876.552 37.462 877.352 36.854L877.928 38.294C876.936 39.382 876.04 39.926 875.24 39.926C874.84 39.926 874.36 39.79 873.8 39.518C873.24 39.23 872.848 39.086 872.624 39.086C872.416 39.086 872.232 39.102 872.072 39.134C871.912 39.15 871.784 39.174 871.688 39.206C871.592 39.222 871.472 39.262 871.328 39.326C871.168 39.406 871.056 39.462 870.992 39.494C870.944 39.526 870.832 39.598 870.656 39.71C870.464 39.822 870.336 39.894 870.272 39.926L869.696 38.606C870.704 37.486 871.664 36.926 872.576 36.926C872.976 36.942 873.44 37.086 873.968 37.358C874.496 37.63 874.832 37.766 874.976 37.766H875.24ZM868.64 42.206C870.096 41.646 872.04 41.366 874.472 41.366C875.944 41.366 877.072 41.678 877.856 42.302C878.656 42.91 879.056 43.966 879.056 45.47V54.35H876.392L875.696 52.958C875.632 53.07 875.424 53.246 875.072 53.486C874.736 53.71 874.264 53.934 873.656 54.158C873.048 54.382 872.464 54.494 871.904 54.494C870.72 54.494 869.808 54.158 869.168 53.486C868.528 52.798 868.208 52.006 868.208 51.11V49.91C868.208 48.886 868.512 48.046 869.12 47.39C869.728 46.734 870.664 46.406 871.928 46.406H874.76H875.696V45.806V45.59C875.696 44.95 875.56 44.526 875.288 44.318C875.016 44.126 874.472 44.03 873.656 44.03C872.84 44.03 871.168 44.118 868.64 44.294V42.206ZM871.568 50.63C871.568 51.11 871.672 51.422 871.88 51.566C872.088 51.726 872.392 51.806 872.792 51.806C873.192 51.806 873.632 51.726 874.112 51.566C874.608 51.39 874.992 51.222 875.264 51.062L875.696 50.798V48.47L872.6 48.71C871.912 48.774 871.568 49.206 871.568 50.006V50.63ZM880.845 48.158C880.845 46.846 880.941 45.766 881.133 44.918C881.325 44.07 881.661 43.39 882.141 42.878C882.621 42.366 883.213 42.006 883.917 41.798C884.637 41.59 885.549 41.486 886.653 41.486C888.845 41.486 890.357 41.966 891.189 42.926C892.037 43.886 892.461 45.63 892.461 48.158C892.461 50.542 892.045 52.19 891.213 53.102C890.397 54.014 888.877 54.47 886.653 54.47C885.773 54.47 885.005 54.398 884.349 54.254C883.709 54.094 883.157 53.862 882.693 53.558C882.245 53.254 881.885 52.854 881.613 52.358C881.341 51.846 881.141 51.254 881.013 50.582C880.901 49.894 880.845 49.086 880.845 48.158ZM884.205 48.158C884.205 48.974 884.245 49.622 884.325 50.102C884.405 50.582 884.549 50.95 884.757 51.206C884.981 51.446 885.229 51.598 885.501 51.662C885.773 51.726 886.157 51.758 886.653 51.758C887.085 51.758 887.413 51.742 887.637 51.71C887.877 51.678 888.101 51.598 888.309 51.47C888.533 51.342 888.693 51.142 888.789 50.87C888.901 50.598 888.981 50.254 889.029 49.838C889.077 49.406 889.101 48.846 889.101 48.158C889.101 47.422 889.077 46.83 889.029 46.382C888.997 45.918 888.933 45.534 888.837 45.23C888.741 44.91 888.589 44.686 888.381 44.558C888.173 44.414 887.941 44.318 887.685 44.27C887.429 44.206 887.085 44.174 886.653 44.174C886.301 44.174 886.013 44.19 885.789 44.222C885.565 44.254 885.349 44.326 885.141 44.438C884.933 44.534 884.773 44.67 884.661 44.846C884.565 45.006 884.477 45.238 884.397 45.542C884.317 45.846 884.261 46.206 884.229 46.622C884.213 47.038 884.205 47.55 884.205 48.158ZM902.367 42.686V41.174C902.367 40.502 902.447 39.902 902.607 39.374C902.767 38.846 902.983 38.414 903.255 38.078C903.527 37.742 903.863 37.47 904.263 37.262C904.679 37.038 905.111 36.886 905.559 36.806C906.023 36.71 906.543 36.654 907.119 36.638C908.335 36.606 909.591 36.662 910.887 36.806C912.183 36.95 913.191 37.126 913.911 37.334V39.974C912.087 39.814 910.127 39.734 908.031 39.734C907.183 39.718 906.583 39.814 906.231 40.022C905.895 40.214 905.727 40.686 905.727 41.438V42.302C905.727 42.974 905.863 43.422 906.135 43.646C906.407 43.87 906.895 43.982 907.599 43.982H910.383C910.799 43.982 911.183 44.022 911.535 44.102C911.903 44.182 912.215 44.294 912.471 44.438C912.743 44.582 912.983 44.75 913.191 44.942C913.415 45.134 913.599 45.35 913.743 45.59C913.903 45.83 914.031 46.078 914.127 46.334C914.239 46.574 914.319 46.83 914.367 47.102C914.431 47.374 914.471 47.638 914.487 47.894C914.519 48.134 914.535 48.382 914.535 48.638V49.814C914.535 50.582 914.439 51.254 914.247 51.83C914.055 52.406 913.807 52.862 913.503 53.198C913.215 53.534 912.847 53.806 912.399 54.014C911.967 54.222 911.535 54.358 911.103 54.422C910.671 54.502 910.199 54.542 909.687 54.542C906.791 54.542 904.527 54.302 902.895 53.822V51.182C904.655 51.358 906.695 51.446 909.015 51.446C909.319 51.446 909.575 51.43 909.783 51.398C910.007 51.366 910.231 51.302 910.455 51.206C910.695 51.11 910.871 50.958 910.983 50.75C911.111 50.526 911.175 50.254 911.175 49.934V48.998C911.175 48.438 911.063 48.022 910.839 47.75C910.615 47.478 910.199 47.342 909.591 47.342H906.903C903.879 47.326 902.367 45.774 902.367 42.686ZM916.236 50.078V41.606H919.596V50.15C919.596 51.286 920.068 51.854 921.012 51.854C921.444 51.854 921.836 51.814 922.188 51.734C922.54 51.654 922.852 51.542 923.124 51.398C923.412 51.238 923.732 51.022 924.084 50.75V41.606H927.444V54.35H924.732L924.084 53.006C923.94 53.086 923.708 53.23 923.388 53.438C923.068 53.646 922.82 53.798 922.644 53.894C922.484 53.99 922.252 54.102 921.948 54.23C921.66 54.358 921.364 54.446 921.06 54.494C920.756 54.542 920.412 54.566 920.028 54.566C917.5 54.566 916.236 53.07 916.236 50.078ZM929.623 49.814V35.558H932.983V49.286C932.983 50.134 933.071 50.726 933.247 51.062C933.423 51.398 933.703 51.638 934.087 51.782C935.047 52.118 935.583 52.286 935.695 52.286V54.35H932.911C932.383 54.35 931.919 54.27 931.519 54.11C931.119 53.95 930.775 53.702 930.487 53.366C930.199 53.014 929.983 52.542 929.839 51.95C929.695 51.358 929.623 50.646 929.623 49.814ZM945.215 46.526C945.215 42.494 946.255 38.75 948.335 35.294C948.751 34.622 949.111 34.094 949.415 33.71H952.559C952.447 33.87 952.303 34.102 952.127 34.406C951.951 34.71 951.631 35.334 951.167 36.278C950.703 37.206 950.295 38.15 949.943 39.11C949.607 40.054 949.295 41.214 949.007 42.59C948.719 43.95 948.575 45.262 948.575 46.526C948.575 47.902 948.711 49.286 948.983 50.678C949.255 52.07 949.583 53.27 949.967 54.278C950.351 55.27 950.743 56.166 951.143 56.966C951.543 57.766 951.871 58.366 952.127 58.766C952.399 59.182 952.543 59.39 952.559 59.39H949.415C949.415 59.39 949.175 59.094 948.695 58.502C946.855 55.974 945.743 52.862 945.359 49.166C945.263 48.302 945.215 47.422 945.215 46.526ZM953.638 39.662V37.166C955.99 36.75 958.422 36.542 960.934 36.542C962.71 36.542 964.03 37.078 964.894 38.15C965.726 39.174 966.142 40.454 966.142 41.99C966.142 44.662 963.934 47.75 959.518 51.254H966.142V54.35H953.83V51.398C955.11 50.534 956.326 49.606 957.478 48.614C958.646 47.622 959.574 46.774 960.262 46.07C960.966 45.366 961.558 44.638 962.038 43.886C962.518 43.15 962.758 42.518 962.758 41.99C962.758 41.462 962.662 41.022 962.47 40.67C962.086 39.998 961.222 39.662 959.878 39.662H953.638ZM968.299 50.078V41.198C968.299 39.774 968.691 38.686 969.475 37.934C970.275 37.166 971.355 36.782 972.715 36.782H976.651C978.827 36.782 980.171 37.662 980.683 39.422C980.827 39.918 980.899 40.462 980.899 41.054V50.078C980.899 51.47 980.531 52.526 979.795 53.246C979.043 53.982 977.987 54.35 976.627 54.35H972.691C971.315 54.35 970.243 53.99 969.475 53.27C968.691 52.55 968.299 51.486 968.299 50.078ZM971.659 49.526C971.659 50.678 972.259 51.254 973.459 51.254H975.787C976.379 51.254 976.819 51.126 977.107 50.87C977.395 50.614 977.539 50.174 977.539 49.55V41.582C977.539 40.446 976.995 39.878 975.907 39.878H973.387C972.731 39.878 972.275 40.046 972.019 40.382C971.779 40.734 971.659 41.134 971.659 41.582V49.526ZM989.609 36.782V54.35H986.249V40.118L982.865 40.958V38.774L986.273 36.782H989.609ZM999.187 54.518H997.795H997.339C997.243 54.518 996.971 54.51 996.523 54.494C996.091 54.494 995.795 54.494 995.635 54.494C995.475 54.478 995.211 54.462 994.843 54.446C994.475 54.414 994.187 54.382 993.979 54.35C993.787 54.318 993.539 54.278 993.235 54.23C992.755 54.15 992.259 54.022 991.747 53.846L991.771 51.398H997.867C998.779 51.398 999.419 51.302 999.787 51.11C1000.14 50.918 1000.31 50.47 1000.31 49.766V48.998C1000.31 48.326 1000.12 47.87 999.739 47.63C999.371 47.374 998.795 47.23 998.011 47.198L993.235 47.006V44.318L998.011 44.078C998.859 44.03 999.467 43.886 999.835 43.646C1000.19 43.39 1000.36 42.958 1000.36 42.35V41.486C1000.36 41.054 1000.25 40.71 1000.03 40.454C999.787 40.198 999.507 40.03 999.187 39.95C998.867 39.87 998.475 39.83 998.011 39.83H991.603V37.406C992.915 36.942 994.987 36.71 997.819 36.71C998.347 36.71 998.859 36.718 999.355 36.734C1000.68 36.766 1001.74 37.158 1002.52 37.91C1003.31 38.662 1003.7 39.678 1003.7 40.958V42.206C1003.7 44.03 1003.09 45.166 1001.87 45.614C1003.09 46.126 1003.7 47.326 1003.7 49.214V50.222C1003.7 51.614 1003.31 52.678 1002.55 53.414C1001.78 54.15 1000.66 54.518 999.187 54.518ZM1005.52 48.806V45.974H1013.06V48.806H1005.52ZM1014.25 39.662V37.166C1016.6 36.75 1019.03 36.542 1021.54 36.542C1023.32 36.542 1024.64 37.078 1025.5 38.15C1026.34 39.174 1026.75 40.454 1026.75 41.99C1026.75 44.662 1024.54 47.75 1020.13 51.254H1026.75V54.35H1014.44V51.398C1015.72 50.534 1016.94 49.606 1018.09 48.614C1019.26 47.622 1020.18 46.774 1020.87 46.07C1021.58 45.366 1022.17 44.638 1022.65 43.886C1023.13 43.15 1023.37 42.518 1023.37 41.99C1023.37 41.462 1023.27 41.022 1023.08 40.67C1022.7 39.998 1021.83 39.662 1020.49 39.662H1014.25ZM1028.91 50.078V41.198C1028.91 39.774 1029.3 38.686 1030.08 37.934C1030.88 37.166 1031.96 36.782 1033.32 36.782H1037.26C1039.44 36.782 1040.78 37.662 1041.29 39.422C1041.44 39.918 1041.51 40.462 1041.51 41.054V50.078C1041.51 51.47 1041.14 52.526 1040.4 53.246C1039.65 53.982 1038.6 54.35 1037.24 54.35H1033.3C1031.92 54.35 1030.85 53.99 1030.08 53.27C1029.3 52.55 1028.91 51.486 1028.91 50.078ZM1032.27 49.526C1032.27 50.678 1032.87 51.254 1034.07 51.254H1036.4C1036.99 51.254 1037.43 51.126 1037.72 50.87C1038 50.614 1038.15 50.174 1038.15 49.55V41.582C1038.15 40.446 1037.6 39.878 1036.52 39.878H1034C1033.34 39.878 1032.88 40.046 1032.63 40.382C1032.39 40.734 1032.27 41.134 1032.27 41.582V49.526ZM1050.22 36.782V54.35H1046.86V40.118L1043.47 40.958V38.774L1046.88 36.782H1050.22ZM1052.21 39.878V36.782H1063.52L1064.43 38.318L1058.55 54.35H1054.88L1060.28 39.878H1052.21ZM1065.31 59.39C1065.42 59.246 1065.57 59.03 1065.74 58.742C1065.92 58.47 1066.23 57.886 1066.68 56.99C1067.14 56.11 1067.55 55.198 1067.9 54.254C1068.25 53.31 1068.57 52.134 1068.86 50.726C1069.15 49.302 1069.29 47.902 1069.29 46.526C1069.29 45.262 1069.16 43.958 1068.89 42.614C1068.61 41.27 1068.28 40.094 1067.88 39.086C1067.49 38.062 1067.1 37.134 1066.7 36.302C1066.32 35.454 1065.99 34.814 1065.72 34.382L1065.31 33.71H1068.45C1068.57 33.854 1068.71 34.054 1068.89 34.31C1069.08 34.566 1069.41 35.126 1069.89 35.99C1070.39 36.838 1070.82 37.726 1071.19 38.654C1071.56 39.582 1071.89 40.766 1072.2 42.206C1072.5 43.63 1072.65 45.07 1072.65 46.526C1072.65 47.71 1072.57 48.854 1072.41 49.958C1072.27 51.062 1072.07 52.03 1071.81 52.862C1071.57 53.694 1071.3 54.478 1071 55.214C1070.69 55.95 1070.39 56.566 1070.09 57.062C1069.8 57.558 1069.53 57.982 1069.27 58.334C1069.03 58.702 1068.83 58.974 1068.67 59.15L1068.45 59.39H1065.31Z" fill="white"/>
<path d="M243 66.1V10" stroke="#A9A9A9" stroke-width="2"/>
<defs>
<filter id="filter0_dd_648_3" x="248" y="67.6833" width="219.8" height="147.472" filterUnits="userSpaceOnUse" color-interpolation-filters="sRGB">
<feFlood flood-opacity="0" result="BackgroundImageFix"/>
<feColorMatrix in="SourceAlpha" type="matrix" values="0 0 0 0 0 0 0 0 0 0 0 0 0 0 0 0 0 0 127 0" result="hardAlpha"/>
<feMorphology radius="4" operator="dilate" in="SourceAlpha" result="effect1_dropShadow_648_3"/>
<feOffset dx="4"/>
<feGaussianBlur stdDeviation="5"/>
<feComposite in2="hardAlpha" operator="out"/>
<feColorMatrix type="matrix" values="0 0 0 0 0 0 0 0 0 0 0 0 0 0 0 0 0 0 0.1 0"/>
<feBlend mode="normal" in2="BackgroundImageFix" result="effect1_dropShadow_648_3"/>
<feColorMatrix in="SourceAlpha" type="matrix" values="0 0 0 0 0 0 0 0 0 0 0 0 0 0 0 0 0 0 127 0" result="hardAlpha"/>
<feOffset dy="4"/>
<feGaussianBlur stdDeviation="2"/>
<feComposite in2="hardAlpha" operator="out"/>
<feColorMatrix type="matrix" values="0 0 0 0 0 0 0 0 0 0 0 0 0 0 0 0 0 0 0.1 0"/>
<feBlend mode="normal" in2="effect1_dropShadow_648_3" result="effect2_dropShadow_648_3"/>
<feBlend mode="normal" in="SourceGraphic" in2="effect2_dropShadow_648_3" result="shape"/>
</filter>
<filter id="filter1_dd_648_3" x="455" y="67.6833" width="219.8" height="147.472" filterUnits="userSpaceOnUse" color-interpolation-filters="sRGB">
<feFlood flood-opacity="0" result="BackgroundImageFix"/>
<feColorMatrix in="SourceAlpha" type="matrix" values="0 0 0 0 0 0 0 0 0 0 0 0 0 0 0 0 0 0 127 0" result="hardAlpha"/>
<feMorphology radius="4" operator="dilate" in="SourceAlpha" result="effect1_dropShadow_648_3"/>
<feOffset dx="4"/>
<feGaussianBlur stdDeviation="5"/>
<feComposite in2="hardAlpha" operator="out"/>
<feColorMatrix type="matrix" values="0 0 0 0 0 0 0 0 0 0 0 0 0 0 0 0 0 0 0.1 0"/>
<feBlend mode="normal" in2="BackgroundImageFix" result="effect1_dropShadow_648_3"/>
<feColorMatrix in="SourceAlpha" type="matrix" values="0 0 0 0 0 0 0 0 0 0 0 0 0 0 0 0 0 0 127 0" result="hardAlpha"/>
<feOffset dy="4"/>
<feGaussianBlur stdDeviation="2"/>
<feComposite in2="hardAlpha" operator="out"/>
<feColorMatrix type="matrix" values="0 0 0 0 0 0 0 0 0 0 0 0 0 0 0 0 0 0 0.1 0"/>
<feBlend mode="normal" in2="effect1_dropShadow_648_3" result="effect2_dropShadow_648_3"/>
<feBlend mode="normal" in="SourceGraphic" in2="effect2_dropShadow_648_3" result="shape"/>
</filter>
<filter id="filter2_dd_648_3" x="661" y="67.6833" width="219.8" height="147.472" filterUnits="userSpaceOnUse" color-interpolation-filters="sRGB">
<feFlood flood-opacity="0" result="BackgroundImageFix"/>
<feColorMatrix in="SourceAlpha" type="matrix" values="0 0 0 0 0 0 0 0 0 0 0 0 0 0 0 0 0 0 127 0" result="hardAlpha"/>
<feMorphology radius="4" operator="dilate" in="SourceAlpha" result="effect1_dropShadow_648_3"/>
<feOffset dx="4"/>
<feGaussianBlur stdDeviation="5"/>
<feComposite in2="hardAlpha" operator="out"/>
<feColorMatrix type="matrix" values="0 0 0 0 0 0 0 0 0 0 0 0 0 0 0 0 0 0 0.1 0"/>
<feBlend mode="normal" in2="BackgroundImageFix" result="effect1_dropShadow_648_3"/>
<feColorMatrix in="SourceAlpha" type="matrix" values="0 0 0 0 0 0 0 0 0 0 0 0 0 0 0 0 0 0 127 0" result="hardAlpha"/>
<feOffset dy="4"/>
<feGaussianBlur stdDeviation="2"/>
<feComposite in2="hardAlpha" operator="out"/>
<feColorMatrix type="matrix" values="0 0 0 0 0 0 0 0 0 0 0 0 0 0 0 0 0 0 0.1 0"/>
<feBlend mode="normal" in2="effect1_dropShadow_648_3" result="effect2_dropShadow_648_3"/>
<feBlend mode="normal" in="SourceGraphic" in2="effect2_dropShadow_648_3" result="shape"/>
</filter>
<filter id="filter3_dd_648_3" x="868" y="67.6833" width="219.8" height="147.472" filterUnits="userSpaceOnUse" color-interpolation-filters="sRGB">
<feFlood flood-opacity="0" result="BackgroundImageFix"/>
<feColorMatrix in="SourceAlpha" type="matrix" values="0 0 0 0 0 0 0 0 0 0 0 0 0 0 0 0 0 0 127 0" result="hardAlpha"/>
<feMorphology radius="4" operator="dilate" in="SourceAlpha" result="effect1_dropShadow_648_3"/>
<feOffset dx="4"/>
<feGaussianBlur stdDeviation="5"/>
<feComposite in2="hardAlpha" operator="out"/>
<feColorMatrix type="matrix" values="0 0 0 0 0 0 0 0 0 0 0 0 0 0 0 0 0 0 0.1 0"/>
<feBlend mode="normal" in2="BackgroundImageFix" result="effect1_dropShadow_648_3"/>
<feColorMatrix in="SourceAlpha" type="matrix" values="0 0 0 0 0 0 0 0 0 0 0 0 0 0 0 0 0 0 127 0" result="hardAlpha"/>
<feOffset dy="4"/>
<feGaussianBlur stdDeviation="2"/>
<feComposite in2="hardAlpha" operator="out"/>
<feColorMatrix type="matrix" values="0 0 0 0 0 0 0 0 0 0 0 0 0 0 0 0 0 0 0.1 0"/>
<feBlend mode="normal" in2="effect1_dropShadow_648_3" result="effect2_dropShadow_648_3"/>
<feBlend mode="normal" in="SourceGraphic" in2="effect2_dropShadow_648_3" result="shape"/>
</filter>
<filter id="filter4_dd_648_3" x="1075" y="67.6833" width="219.8" height="147.472" filterUnits="userSpaceOnUse" color-interpolation-filters="sRGB">
<feFlood flood-opacity="0" result="BackgroundImageFix"/>
<feColorMatrix in="SourceAlpha" type="matrix" values="0 0 0 0 0 0 0 0 0 0 0 0 0 0 0 0 0 0 127 0" result="hardAlpha"/>
<feMorphology radius="4" operator="dilate" in="SourceAlpha" result="effect1_dropShadow_648_3"/>
<feOffset dx="4"/>
<feGaussianBlur stdDeviation="5"/>
<feComposite in2="hardAlpha" operator="out"/>
<feColorMatrix type="matrix" values="0 0 0 0 0 0 0 0 0 0 0 0 0 0 0 0 0 0 0.1 0"/>
<feBlend mode="normal" in2="BackgroundImageFix" result="effect1_dropShadow_648_3"/>
<feColorMatrix in="SourceAlpha" type="matrix" values="0 0 0 0 0 0 0 0 0 0 0 0 0 0 0 0 0 0 127 0" result="hardAlpha"/>
<feOffset dy="4"/>
<feGaussianBlur stdDeviation="2"/>
<feComposite in2="hardAlpha" operator="out"/>
<feColorMatrix type="matrix" values="0 0 0 0 0 0 0 0 0 0 0 0 0 0 0 0 0 0 0.1 0"/>
<feBlend mode="normal" in2="effect1_dropShadow_648_3" result="effect2_dropShadow_648_3"/>
<feBlend mode="normal" in="SourceGraphic" in2="effect2_dropShadow_648_3" result="shape"/>
</filter>
<filter id="filter5_d_648_3" x="0" y="0" width="1308" height="84.1" filterUnits="userSpaceOnUse" color-interpolation-filters="sRGB">
<feFlood flood-opacity="0" result="BackgroundImageFix"/>
<feColorMatrix in="SourceAlpha" type="matrix" values="0 0 0 0 0 0 0 0 0 0 0 0 0 0 0 0 0 0 127 0" result="hardAlpha"/>
<feMorphology radius="4" operator="dilate" in="SourceAlpha" result="effect1_dropShadow_648_3"/>
<feOffset dx="2" dy="4"/>
<feGaussianBlur stdDeviation="5"/>
<feComposite in2="hardAlpha" operator="out"/>
<feColorMatrix type="matrix" values="0 0 0 0 0 0 0 0 0 0 0 0 0 0 0 0 0 0 0.25 0"/>
<feBlend mode="normal" in2="BackgroundImageFix" result="effect1_dropShadow_648_3"/>
<feBlend mode="normal" in="SourceGraphic" in2="effect1_dropShadow_648_3" result="shape"/>
</filter>
<filter id="filter6_d_648_3" x="0" y="56.1" width="259" height="719.9" filterUnits="userSpaceOnUse" color-interpolation-filters="sRGB">
<feFlood flood-opacity="0" result="BackgroundImageFix"/>
<feColorMatrix in="SourceAlpha" type="matrix" values="0 0 0 0 0 0 0 0 0 0 0 0 0 0 0 0 0 0 127 0" result="hardAlpha"/>
<feMorphology radius="4" operator="dilate" in="SourceAlpha" result="effect1_dropShadow_648_3"/>
<feOffset dx="2" dy="4"/>
<feGaussianBlur stdDeviation="5"/>
<feComposite in2="hardAlpha" operator="out"/>
<feColorMatrix type="matrix" values="0 0 0 0 0 0 0 0 0 0 0 0 0 0 0 0 0 0 0.25 0"/>
<feBlend mode="normal" in2="BackgroundImageFix" result="effect1_dropShadow_648_3"/>
<feBlend mode="normal" in="SourceGraphic" in2="effect1_dropShadow_648_3" result="shape"/>
</filter>
</defs>
</svg>
