<svg width="1308" height="767" viewBox="0 0 1308 767" fill="none" xmlns="http://www.w3.org/2000/svg">
<rect x="12" y="10" width="1280" height="739" fill="#F8F8F8"/>
<g filter="url(#filter0_dd_648_3)">
<path d="M258 80.8208H449.8V198.856H258V80.8208Z" fill="#E8E8E8"/>
</g>
<path d="M258 214.251H701V733.604H258V214.251Z" fill="#E8E8E8"/>
<path d="M716 214.251H1277V453.4H716V214.251Z" fill="#E8E8E8"/>
<path d="M716 468.796H1277V733.604H716V468.796Z" fill="#E8E8E8"/>
<g filter="url(#filter1_dd_648_3)">
<path d="M465 80.8208H656.8V198.856H465V80.8208Z" fill="#E8E8E8"/>
</g>
<g filter="url(#filter2_dd_648_3)">
<path d="M671 80.8208H862.8V198.856H671V80.8208Z" fill="#E8E8E8"/>
</g>
<g filter="url(#filter3_dd_648_3)">
<path d="M878 80.8208H1069.8V198.856H878V80.8208Z" fill="#E8E8E8"/>
</g>
<g filter="url(#filter4_dd_648_3)">
<path d="M1085 80.8208H1276.8V198.856H1085V80.8208Z" fill="#E8E8E8"/>
</g>
<g filter="url(#filter5_d_648_3)">
<path d="M12 10H1292V65.425H12V10Z" fill="#071D41"/>
</g>
<g filter="url(#filter6_d_648_3)">
<path d="M12 65.425H243V749H12V65.425Z" fill="#A9A9A9"/>
</g>
<path d="M66.4124 56.5542V36.0582H75.1204C79.8618 36.0582 82.2324 39.5022 82.2324 46.3902C82.2324 47.9208 82.0924 49.3022 81.8124 50.5342C81.5324 51.7475 81.1124 52.8115 80.5524 53.7262C79.9924 54.6408 79.2458 55.3408 78.3124 55.8262C77.3978 56.3115 76.3338 56.5542 75.1204 56.5542H66.4124ZM70.3324 53.0542H74.8124C77.1458 53.0542 78.3124 50.8235 78.3124 46.3622C78.3124 45.2795 78.2564 44.3462 78.1444 43.5622C78.0324 42.7595 77.8831 42.1062 77.6964 41.6022C77.5098 41.0795 77.2671 40.6688 76.9684 40.3702C76.6698 40.0528 76.3431 39.8382 75.9884 39.7262C75.6524 39.5955 75.2604 39.5302 74.8124 39.5302H70.3324V53.0542ZM84.2235 56.5542L91.1395 36.0582H95.5915L102.255 56.5542H98.0835L96.6275 52.0182H89.9075L88.4235 56.5542H84.2235ZM90.9435 48.5462H95.7035L93.4075 41.2102L90.9435 48.5462ZM103.526 39.6702V36.0582H118.674V39.6702H112.99V56.5542H109.07V39.6702H103.526ZM120.208 56.5542L127.124 36.0582H131.576L138.24 56.5542H134.068L132.612 52.0182H125.892L124.408 56.5542H120.208ZM126.928 48.5462H131.688L129.392 41.2102L126.928 48.5462ZM140.015 42.9462V41.1822C140.015 40.3982 140.108 39.6982 140.295 39.0822C140.481 38.4662 140.733 37.9622 141.051 37.5702C141.368 37.1782 141.76 36.8608 142.227 36.6182C142.712 36.3568 143.216 36.1795 143.739 36.0862C144.28 35.9742 144.887 35.9088 145.559 35.8902C146.977 35.8528 148.443 35.9182 149.955 36.0862C151.467 36.2542 152.643 36.4595 153.483 36.7022V39.7822C151.355 39.5955 149.068 39.5022 146.623 39.5022C145.633 39.4835 144.933 39.5955 144.523 39.8382C144.131 40.0622 143.935 40.6128 143.935 41.4902V42.4982C143.935 43.2822 144.093 43.8048 144.411 44.0662C144.728 44.3275 145.297 44.4582 146.119 44.4582H149.367C149.852 44.4582 150.3 44.5048 150.711 44.5982C151.14 44.6915 151.504 44.8222 151.803 44.9902C152.12 45.1582 152.4 45.3542 152.643 45.5782C152.904 45.8022 153.119 46.0542 153.287 46.3342C153.473 46.6142 153.623 46.9035 153.735 47.2022C153.865 47.4822 153.959 47.7808 154.015 48.0982C154.089 48.4155 154.136 48.7235 154.155 49.0222C154.192 49.3022 154.211 49.5915 154.211 49.8902V51.2622C154.211 52.1582 154.099 52.9422 153.875 53.6142C153.651 54.2862 153.361 54.8182 153.007 55.2102C152.671 55.6022 152.241 55.9195 151.719 56.1622C151.215 56.4048 150.711 56.5635 150.207 56.6382C149.703 56.7315 149.152 56.7782 148.555 56.7782C145.176 56.7782 142.535 56.4982 140.631 55.9382V52.8582C142.684 53.0635 145.064 53.1662 147.771 53.1662C148.125 53.1662 148.424 53.1475 148.667 53.1102C148.928 53.0728 149.189 52.9982 149.451 52.8862C149.731 52.7742 149.936 52.5968 150.067 52.3542C150.216 52.0928 150.291 51.7755 150.291 51.4022V50.3102C150.291 49.6568 150.16 49.1715 149.899 48.8542C149.637 48.5368 149.152 48.3782 148.443 48.3782H145.307C141.779 48.3595 140.015 46.5488 140.015 42.9462ZM156.838 47.5942V36.0582H160.758V47.5942C160.758 48.7702 160.824 49.7128 160.954 50.4222C161.085 51.1315 161.318 51.6915 161.654 52.1022C161.99 52.4942 162.392 52.7555 162.858 52.8862C163.325 53.0168 163.95 53.0822 164.734 53.0822C165.425 53.0822 165.994 53.0075 166.442 52.8582C166.89 52.7088 167.273 52.4382 167.59 52.0462C167.926 51.6355 168.169 51.0755 168.318 50.3662C168.468 49.6382 168.542 48.7142 168.542 47.5942V36.0582H172.49V47.5942C172.49 48.5835 172.434 49.4888 172.322 50.3102C172.21 51.1128 172.07 51.8128 171.902 52.4102C171.734 52.9888 171.501 53.5115 171.202 53.9782C170.922 54.4448 170.642 54.8275 170.362 55.1262C170.101 55.4062 169.756 55.6582 169.326 55.8822C168.916 56.0875 168.561 56.2462 168.262 56.3582C167.964 56.4515 167.562 56.5262 167.058 56.5822C166.573 56.6382 166.181 56.6662 165.882 56.6662C165.602 56.6848 165.22 56.6942 164.734 56.6942C164.678 56.6942 164.585 56.6942 164.454 56.6942C163.745 56.6942 163.204 56.6848 162.83 56.6662C162.476 56.6475 161.981 56.5822 161.346 56.4702C160.712 56.3582 160.217 56.1995 159.862 55.9942C159.526 55.7702 159.134 55.4435 158.686 55.0142C158.238 54.5662 157.902 54.0248 157.678 53.3902C157.454 52.7555 157.258 51.9528 157.09 50.9822C156.922 49.9928 156.838 48.8635 156.838 47.5942ZM175.124 42.9462V41.1822C175.124 40.3982 175.217 39.6982 175.404 39.0822C175.591 38.4662 175.843 37.9622 176.16 37.5702C176.477 37.1782 176.869 36.8608 177.336 36.6182C177.821 36.3568 178.325 36.1795 178.848 36.0862C179.389 35.9742 179.996 35.9088 180.668 35.8902C182.087 35.8528 183.552 35.9182 185.064 36.0862C186.576 36.2542 187.752 36.4595 188.592 36.7022V39.7822C186.464 39.5955 184.177 39.5022 181.732 39.5022C180.743 39.4835 180.043 39.5955 179.632 39.8382C179.24 40.0622 179.044 40.6128 179.044 41.4902V42.4982C179.044 43.2822 179.203 43.8048 179.52 44.0662C179.837 44.3275 180.407 44.4582 181.228 44.4582H184.476C184.961 44.4582 185.409 44.5048 185.82 44.5982C186.249 44.6915 186.613 44.8222 186.912 44.9902C187.229 45.1582 187.509 45.3542 187.752 45.5782C188.013 45.8022 188.228 46.0542 188.396 46.3342C188.583 46.6142 188.732 46.9035 188.844 47.2022C188.975 47.4822 189.068 47.7808 189.124 48.0982C189.199 48.4155 189.245 48.7235 189.264 49.0222C189.301 49.3022 189.32 49.5915 189.32 49.8902V51.2622C189.32 52.1582 189.208 52.9422 188.984 53.6142C188.76 54.2862 188.471 54.8182 188.116 55.2102C187.78 55.6022 187.351 55.9195 186.828 56.1622C186.324 56.4048 185.82 56.5635 185.316 56.6382C184.812 56.7315 184.261 56.7782 183.664 56.7782C180.285 56.7782 177.644 56.4982 175.74 55.9382V52.8582C177.793 53.0635 180.173 53.1662 182.88 53.1662C183.235 53.1662 183.533 53.1475 183.776 53.1102C184.037 53.0728 184.299 52.9982 184.56 52.8862C184.84 52.7742 185.045 52.5968 185.176 52.3542C185.325 52.0928 185.4 51.7755 185.4 51.4022V50.3102C185.4 49.6568 185.269 49.1715 185.008 48.8542C184.747 48.5368 184.261 48.3782 183.552 48.3782H180.416C176.888 48.3595 175.124 46.5488 175.124 42.9462Z" fill="white"/>
<path d="M66.6502 32.2375L67.4182 23.4535H69.7582L71.2222 29.4535L72.6742 23.4535H75.0022L75.8182 32.2375H74.1622L73.5862 26.3695L72.1702 32.2375H70.2982L68.8222 26.3695L68.3062 32.2375H66.6502ZM77.0384 32.2375V23.4535H78.7184V32.2375H77.0384ZM79.9798 32.2375V23.4535H81.6838L85.1638 29.1295V23.4535H86.8438V32.2375H85.1638L81.6718 26.6215V32.2375H79.9798ZM87.9806 26.4055V25.6495C87.9806 25.3135 88.0206 25.0135 88.1006 24.7495C88.1806 24.4855 88.2886 24.2695 88.4246 24.1015C88.5606 23.9335 88.7286 23.7975 88.9286 23.6935C89.1366 23.5815 89.3526 23.5055 89.5766 23.4655C89.8086 23.4175 90.0686 23.3895 90.3566 23.3815C90.9646 23.3655 91.5926 23.3935 92.2406 23.4655C92.8886 23.5375 93.3926 23.6255 93.7526 23.7295V25.0495C92.8406 24.9695 91.8606 24.9295 90.8126 24.9295C90.3886 24.9215 90.0886 24.9695 89.9126 25.0735C89.7446 25.1695 89.6606 25.4055 89.6606 25.7815V26.2135C89.6606 26.5495 89.7286 26.7735 89.8646 26.8855C90.0006 26.9975 90.2446 27.0535 90.5966 27.0535H91.9886C92.1966 27.0535 92.3886 27.0735 92.5646 27.1135C92.7486 27.1535 92.9046 27.2095 93.0326 27.2815C93.1686 27.3535 93.2886 27.4375 93.3926 27.5335C93.5046 27.6295 93.5966 27.7375 93.6686 27.8575C93.7486 27.9775 93.8126 28.1015 93.8606 28.2295C93.9166 28.3495 93.9566 28.4775 93.9806 28.6135C94.0126 28.7495 94.0326 28.8815 94.0406 29.0095C94.0566 29.1295 94.0646 29.2535 94.0646 29.3815V29.9695C94.0646 30.3535 94.0166 30.6895 93.9206 30.9775C93.8246 31.2655 93.7006 31.4935 93.5486 31.6615C93.4046 31.8295 93.2206 31.9655 92.9966 32.0695C92.7806 32.1735 92.5646 32.2415 92.3486 32.2735C92.1326 32.3135 91.8966 32.3335 91.6406 32.3335C90.1926 32.3335 89.0606 32.2135 88.2446 31.9735V30.6535C89.1246 30.7415 90.1446 30.7855 91.3046 30.7855C91.4566 30.7855 91.5846 30.7775 91.6886 30.7615C91.8006 30.7455 91.9126 30.7135 92.0246 30.6655C92.1446 30.6175 92.2326 30.5415 92.2886 30.4375C92.3526 30.3255 92.3846 30.1895 92.3846 30.0295V29.5615C92.3846 29.2815 92.3286 29.0735 92.2166 28.9375C92.1046 28.8015 91.8966 28.7335 91.5926 28.7335H90.2486C88.7366 28.7255 87.9806 27.9495 87.9806 26.4055ZM94.8427 25.0015V23.4535H101.335V25.0015H98.8987V32.2375H97.2187V25.0015H94.8427ZM102.28 30.5095V25.2775C102.28 24.9815 102.32 24.7215 102.4 24.4975C102.48 24.2735 102.584 24.0975 102.712 23.9695C102.84 23.8415 102.988 23.7375 103.156 23.6575C103.332 23.5695 103.5 23.5135 103.66 23.4895C103.828 23.4655 104.004 23.4535 104.188 23.4535C106.252 23.5095 107.54 23.5735 108.052 23.6455V25.0375H104.584C104.432 25.0375 104.312 25.0535 104.224 25.0855C104.136 25.1175 104.072 25.1735 104.032 25.2535C104 25.3335 103.98 25.4015 103.972 25.4575C103.964 25.5135 103.96 25.5975 103.96 25.7095V27.0775L107.512 27.1975V28.5895L103.96 28.6975V30.0655C103.96 30.2175 103.98 30.3415 104.02 30.4375C104.06 30.5255 104.124 30.5895 104.212 30.6295C104.3 30.6615 104.372 30.6815 104.428 30.6895C104.492 30.6895 104.584 30.6895 104.704 30.6895H108.052V32.0695C107.852 32.0935 107.44 32.1255 106.816 32.1655C106.192 32.1975 105.616 32.2215 105.088 32.2375L104.308 32.2735C104.124 32.2815 103.952 32.2775 103.792 32.2615C103.632 32.2455 103.456 32.2015 103.264 32.1295C103.072 32.0575 102.904 31.9615 102.76 31.8415C102.624 31.7215 102.508 31.5495 102.412 31.3255C102.324 31.0935 102.28 30.8215 102.28 30.5095ZM109.005 32.2375V23.4535H112.845C113.205 23.4535 113.525 23.5015 113.805 23.5975C114.085 23.6855 114.333 23.8335 114.549 24.0415C114.773 24.2415 114.945 24.5255 115.065 24.8935C115.185 25.2535 115.245 25.6855 115.245 26.1895C115.245 26.6055 115.209 26.9695 115.137 27.2815C115.065 27.5935 114.985 27.8335 114.897 28.0015C114.809 28.1615 114.689 28.3055 114.537 28.4335C114.385 28.5535 114.269 28.6295 114.189 28.6615C114.109 28.6935 113.993 28.7335 113.841 28.7815L115.509 32.2375H113.613L112.161 28.9135L110.685 28.7455V32.2375H109.005ZM110.697 27.4255H112.689C112.849 27.4255 112.977 27.4135 113.073 27.3895C113.169 27.3575 113.253 27.2975 113.325 27.2095C113.405 27.1215 113.461 26.9975 113.493 26.8375C113.533 26.6695 113.553 26.4535 113.553 26.1895C113.553 25.7175 113.481 25.3935 113.337 25.2175C113.193 25.0335 112.977 24.9415 112.689 24.9415H110.697V27.4255ZM116.402 32.2375V23.4535H118.082V32.2375H116.402ZM119.211 27.9055C119.211 27.4975 119.223 27.1215 119.247 26.7775C119.279 26.4335 119.323 26.1255 119.379 25.8535C119.443 25.5815 119.511 25.3375 119.583 25.1215C119.663 24.8975 119.759 24.7055 119.871 24.5455C119.983 24.3775 120.095 24.2335 120.207 24.1135C120.327 23.9855 120.467 23.8815 120.627 23.8015C120.787 23.7135 120.939 23.6455 121.083 23.5975C121.235 23.5415 121.407 23.5015 121.599 23.4775C121.791 23.4455 121.971 23.4255 122.139 23.4175C122.315 23.4015 122.515 23.3935 122.739 23.3935C123.027 23.3935 123.275 23.4015 123.483 23.4175C123.699 23.4335 123.923 23.4695 124.155 23.5255C124.395 23.5735 124.599 23.6455 124.767 23.7415C124.935 23.8375 125.103 23.9615 125.271 24.1135C125.447 24.2575 125.591 24.4455 125.703 24.6775C125.815 24.9015 125.915 25.1655 126.003 25.4695C126.091 25.7655 126.155 26.1215 126.195 26.5375C126.243 26.9455 126.267 27.4015 126.267 27.9055C126.267 28.4495 126.235 28.9375 126.171 29.3695C126.115 29.7935 126.039 30.1615 125.943 30.4735C125.847 30.7775 125.715 31.0415 125.547 31.2655C125.387 31.4815 125.215 31.6575 125.031 31.7935C124.855 31.9215 124.639 32.0255 124.383 32.1055C124.127 32.1775 123.871 32.2255 123.615 32.2495C123.367 32.2735 123.075 32.2855 122.739 32.2855C122.443 32.2855 122.183 32.2775 121.959 32.2615C121.743 32.2455 121.515 32.2135 121.275 32.1655C121.043 32.1175 120.843 32.0495 120.675 31.9615C120.507 31.8655 120.339 31.7455 120.171 31.6015C120.003 31.4495 119.863 31.2655 119.751 31.0495C119.639 30.8255 119.539 30.5695 119.451 30.2815C119.371 29.9855 119.311 29.6415 119.271 29.2495C119.231 28.8495 119.211 28.4015 119.211 27.9055ZM120.891 27.9055C120.891 28.4015 120.907 28.8095 120.939 29.1295C120.971 29.4415 121.023 29.7095 121.095 29.9335C121.175 30.1575 121.291 30.3255 121.443 30.4375C121.595 30.5495 121.767 30.6295 121.959 30.6775C122.159 30.7175 122.419 30.7375 122.739 30.7375C123.235 30.7375 123.607 30.6655 123.855 30.5215C124.103 30.3775 124.287 30.1055 124.407 29.7055C124.527 29.2975 124.587 28.6975 124.587 27.9055C124.587 27.4495 124.571 27.0615 124.539 26.7415C124.515 26.4135 124.467 26.1415 124.395 25.9255C124.323 25.7015 124.243 25.5255 124.155 25.3975C124.075 25.2695 123.959 25.1735 123.807 25.1095C123.655 25.0375 123.499 24.9935 123.339 24.9775C123.187 24.9535 122.987 24.9415 122.739 24.9415C122.531 24.9415 122.359 24.9495 122.223 24.9655C122.095 24.9735 121.955 24.9975 121.803 25.0375C121.659 25.0775 121.543 25.1415 121.455 25.2295C121.375 25.3095 121.291 25.4215 121.203 25.5655C121.123 25.7095 121.063 25.8895 121.023 26.1055C120.983 26.3135 120.951 26.5655 120.927 26.8615C120.903 27.1575 120.891 27.5055 120.891 27.9055ZM131.296 32.2375V23.4535H135.028C137.06 23.4535 138.076 24.9295 138.076 27.8815C138.076 28.5375 138.016 29.1295 137.896 29.6575C137.776 30.1775 137.596 30.6335 137.356 31.0255C137.116 31.4175 136.796 31.7175 136.396 31.9255C136.004 32.1335 135.548 32.2375 135.028 32.2375H131.296ZM132.976 30.7375H134.896C135.896 30.7375 136.396 29.7815 136.396 27.8695C136.396 27.4055 136.372 27.0055 136.324 26.6695C136.276 26.3255 136.212 26.0455 136.132 25.8295C136.052 25.6055 135.948 25.4295 135.82 25.3015C135.692 25.1655 135.552 25.0735 135.4 25.0255C135.256 24.9695 135.088 24.9415 134.896 24.9415H132.976V30.7375ZM138.929 32.2375L141.893 23.4535H143.801L146.657 32.2375H144.869L144.245 30.2935H141.365L140.729 32.2375H138.929ZM141.809 28.8055H143.849L142.865 25.6615L141.809 28.8055ZM151.32 26.4055V25.6495C151.32 25.3135 151.36 25.0135 151.44 24.7495C151.52 24.4855 151.628 24.2695 151.764 24.1015C151.9 23.9335 152.068 23.7975 152.268 23.6935C152.476 23.5815 152.692 23.5055 152.916 23.4655C153.148 23.4175 153.408 23.3895 153.696 23.3815C154.304 23.3655 154.932 23.3935 155.58 23.4655C156.228 23.5375 156.732 23.6255 157.092 23.7295V25.0495C156.18 24.9695 155.2 24.9295 154.152 24.9295C153.728 24.9215 153.428 24.9695 153.252 25.0735C153.084 25.1695 153 25.4055 153 25.7815V26.2135C153 26.5495 153.068 26.7735 153.204 26.8855C153.34 26.9975 153.584 27.0535 153.936 27.0535H155.328C155.536 27.0535 155.728 27.0735 155.904 27.1135C156.088 27.1535 156.244 27.2095 156.372 27.2815C156.508 27.3535 156.628 27.4375 156.732 27.5335C156.844 27.6295 156.936 27.7375 157.008 27.8575C157.088 27.9775 157.152 28.1015 157.2 28.2295C157.256 28.3495 157.296 28.4775 157.32 28.6135C157.352 28.7495 157.372 28.8815 157.38 29.0095C157.396 29.1295 157.404 29.2535 157.404 29.3815V29.9695C157.404 30.3535 157.356 30.6895 157.26 30.9775C157.164 31.2655 157.04 31.4935 156.888 31.6615C156.744 31.8295 156.56 31.9655 156.336 32.0695C156.12 32.1735 155.904 32.2415 155.688 32.2735C155.472 32.3135 155.236 32.3335 154.98 32.3335C153.532 32.3335 152.4 32.2135 151.584 31.9735V30.6535C152.464 30.7415 153.484 30.7855 154.644 30.7855C154.796 30.7855 154.924 30.7775 155.028 30.7615C155.14 30.7455 155.252 30.7135 155.364 30.6655C155.484 30.6175 155.572 30.5415 155.628 30.4375C155.692 30.3255 155.724 30.1895 155.724 30.0295V29.5615C155.724 29.2815 155.668 29.0735 155.556 28.9375C155.444 28.8015 155.236 28.7335 154.932 28.7335H153.588C152.076 28.7255 151.32 27.9495 151.32 26.4055ZM158.219 32.2375L161.183 23.4535H163.091L165.947 32.2375H164.159L163.535 30.2935H160.655L160.019 32.2375H158.219ZM161.099 28.8055H163.139L162.155 25.6615L161.099 28.8055ZM166.839 28.3975V23.4535H168.519V28.3975C168.519 28.9015 168.547 29.3055 168.603 29.6095C168.659 29.9135 168.759 30.1535 168.903 30.3295C169.047 30.4975 169.219 30.6095 169.419 30.6655C169.619 30.7215 169.887 30.7495 170.223 30.7495C170.519 30.7495 170.763 30.7175 170.955 30.6535C171.147 30.5895 171.311 30.4735 171.447 30.3055C171.591 30.1295 171.695 29.8895 171.759 29.5855C171.823 29.2735 171.855 28.8775 171.855 28.3975V23.4535H173.547V28.3975C173.547 28.8215 173.523 29.2095 173.475 29.5615C173.427 29.9055 173.367 30.2055 173.295 30.4615C173.223 30.7095 173.123 30.9335 172.995 31.1335C172.875 31.3335 172.755 31.4975 172.635 31.6255C172.523 31.7455 172.375 31.8535 172.191 31.9495C172.015 32.0375 171.863 32.1055 171.735 32.1535C171.607 32.1935 171.435 32.2255 171.219 32.2495C171.011 32.2735 170.843 32.2855 170.715 32.2855C170.595 32.2935 170.431 32.2975 170.223 32.2975C170.199 32.2975 170.159 32.2975 170.103 32.2975C169.799 32.2975 169.567 32.2935 169.407 32.2855C169.255 32.2775 169.043 32.2495 168.771 32.2015C168.499 32.1535 168.287 32.0855 168.135 31.9975C167.991 31.9015 167.823 31.7615 167.631 31.5775C167.439 31.3855 167.295 31.1535 167.199 30.8815C167.103 30.6095 167.019 30.2655 166.947 29.8495C166.875 29.4255 166.839 28.9415 166.839 28.3975ZM174.808 32.2375V23.4535H178.54C180.572 23.4535 181.588 24.9295 181.588 27.8815C181.588 28.5375 181.528 29.1295 181.408 29.6575C181.288 30.1775 181.108 30.6335 180.868 31.0255C180.628 31.4175 180.308 31.7175 179.908 31.9255C179.516 32.1335 179.06 32.2375 178.54 32.2375H174.808ZM176.488 30.7375H178.408C179.408 30.7375 179.908 29.7815 179.908 27.8695C179.908 27.4055 179.884 27.0055 179.836 26.6695C179.788 26.3255 179.724 26.0455 179.644 25.8295C179.564 25.6055 179.46 25.4295 179.332 25.3015C179.204 25.1655 179.064 25.0735 178.912 25.0255C178.768 24.9695 178.6 24.9415 178.408 24.9415H176.488V30.7375ZM182.729 30.5095V25.2775C182.729 24.9815 182.769 24.7215 182.849 24.4975C182.929 24.2735 183.033 24.0975 183.161 23.9695C183.289 23.8415 183.437 23.7375 183.605 23.6575C183.781 23.5695 183.949 23.5135 184.109 23.4895C184.277 23.4655 184.453 23.4535 184.637 23.4535C186.701 23.5095 187.989 23.5735 188.501 23.6455V25.0375H185.033C184.881 25.0375 184.761 25.0535 184.673 25.0855C184.585 25.1175 184.521 25.1735 184.481 25.2535C184.449 25.3335 184.429 25.4015 184.421 25.4575C184.413 25.5135 184.409 25.5975 184.409 25.7095V27.0775L187.961 27.1975V28.5895L184.409 28.6975V30.0655C184.409 30.2175 184.429 30.3415 184.469 30.4375C184.509 30.5255 184.573 30.5895 184.661 30.6295C184.749 30.6615 184.821 30.6815 184.877 30.6895C184.941 30.6895 185.033 30.6895 185.153 30.6895H188.501V32.0695C188.301 32.0935 187.889 32.1255 187.265 32.1655C186.641 32.1975 186.065 32.2215 185.537 32.2375L184.757 32.2735C184.573 32.2815 184.401 32.2775 184.241 32.2615C184.081 32.2455 183.905 32.2015 183.713 32.1295C183.521 32.0575 183.353 31.9615 183.209 31.8415C183.073 31.7215 182.957 31.5495 182.861 31.3255C182.773 31.0935 182.729 30.8215 182.729 30.5095Z" fill="white" fill-opacity="0.5"/>
<path d="M464.444 53.2375V35.6695H467.804V53.2375H464.444ZM469.967 53.2375V40.4935H472.655L473.327 41.8615C473.727 41.5575 474.007 41.3575 474.167 41.2615C474.343 41.1495 474.615 40.9975 474.983 40.8055C475.351 40.5975 475.719 40.4615 476.087 40.3975C476.471 40.3175 476.895 40.2775 477.359 40.2775C479.903 40.2775 481.175 41.7655 481.175 44.7415V53.2375H477.815V44.6935C477.815 44.0855 477.687 43.6455 477.431 43.3735C477.191 43.1015 476.847 42.9655 476.399 42.9655C475.951 42.9655 475.551 43.0135 475.199 43.1095C474.863 43.1895 474.551 43.3095 474.263 43.4695C473.991 43.6135 473.679 43.8135 473.327 44.0695V53.2375H469.967ZM482.97 46.9255C482.97 46.0455 483.002 45.2935 483.066 44.6695C483.13 44.0295 483.25 43.4215 483.426 42.8455C483.602 42.2695 483.842 41.8055 484.146 41.4535C484.45 41.1015 484.85 40.8215 485.346 40.6135C485.842 40.4055 486.434 40.3015 487.122 40.3015C487.49 40.3015 487.898 40.3335 488.346 40.3975C488.794 40.4615 489.25 40.5575 489.714 40.6855C490.194 40.8135 490.618 40.9655 490.986 41.1415V34.3975H494.346V53.2375H491.562L490.986 51.9415C490.522 52.3255 489.938 52.6615 489.234 52.9495C488.53 53.2375 487.826 53.3815 487.122 53.3815C486.818 53.3815 486.53 53.3575 486.258 53.3095C485.986 53.2615 485.73 53.1895 485.49 53.0935C485.266 52.9975 485.05 52.8855 484.842 52.7575C484.65 52.6135 484.474 52.4455 484.314 52.2535C484.154 52.0615 484.002 51.8615 483.858 51.6535C483.73 51.4295 483.618 51.1895 483.522 50.9335C483.426 50.6615 483.338 50.3815 483.258 50.0935C483.194 49.7895 483.138 49.4695 483.09 49.1335C483.058 48.7815 483.026 48.4295 482.994 48.0775C482.978 47.7095 482.97 47.3255 482.97 46.9255ZM486.33 46.8055C486.33 48.1655 486.466 49.1255 486.738 49.6855C487.01 50.2295 487.434 50.5015 488.01 50.5015C488.602 50.5015 489.146 50.4375 489.642 50.3095C490.154 50.1655 490.602 49.9735 490.986 49.7335V43.4215C490.762 43.3255 490.53 43.2535 490.29 43.2055C490.066 43.1415 489.834 43.0935 489.594 43.0615C489.354 43.0135 489.098 42.9815 488.826 42.9655C488.57 42.9495 488.298 42.9415 488.01 42.9415C487.77 42.9415 487.57 42.9735 487.41 43.0375C487.25 43.0855 487.098 43.1975 486.954 43.3735C486.81 43.5335 486.69 43.7575 486.594 44.0455C486.514 44.3175 486.45 44.6855 486.402 45.1495C486.354 45.5975 486.33 46.1495 486.33 46.8055ZM496.306 38.5975V36.4855C496.306 36.0695 496.498 35.8615 496.882 35.8615H499.402C499.754 35.8615 499.93 36.0695 499.93 36.4855V38.5975C499.93 38.7735 499.882 38.9095 499.786 39.0055C499.706 39.1015 499.578 39.1495 499.402 39.1495H496.882C496.77 39.1495 496.666 39.1335 496.57 39.1015C496.49 39.0535 496.426 38.9895 496.378 38.9095C496.33 38.8135 496.306 38.7095 496.306 38.5975ZM496.426 53.2375V40.4935H499.786V53.2375H496.426ZM501.743 46.8535C501.743 45.5735 501.839 44.5015 502.031 43.6375C502.239 42.7575 502.535 42.0935 502.919 41.6455C503.319 41.1815 503.759 40.8535 504.239 40.6615C504.719 40.4695 505.287 40.3735 505.943 40.3735C508.295 40.3735 510.247 40.6215 511.799 41.1175V43.2055C510.279 43.1095 508.807 43.0615 507.383 43.0615C506.999 43.0615 506.711 43.0775 506.519 43.1095C506.343 43.1415 506.143 43.2215 505.919 43.3495C505.695 43.4775 505.535 43.6775 505.439 43.9495C505.343 44.2215 505.263 44.5975 505.199 45.0775C505.135 45.5575 505.103 46.1735 505.103 46.9255C505.103 48.0135 505.175 48.8215 505.319 49.3495C505.479 49.8775 505.703 50.2295 505.991 50.4055C506.295 50.5655 506.759 50.6455 507.383 50.6455C508.039 50.6455 508.751 50.6295 509.519 50.5975C510.287 50.5655 510.887 50.5255 511.319 50.4775L511.967 50.4295V52.5415C511.615 52.7175 511.255 52.8695 510.887 52.9975C510.519 53.1095 510.071 53.1895 509.543 53.2375C509.031 53.2855 508.663 53.3175 508.439 53.3335C508.231 53.3495 507.783 53.3575 507.095 53.3575C506.407 53.3575 506.023 53.3575 505.943 53.3575C504.119 53.3575 502.903 52.5255 502.295 50.8615C501.927 49.8535 501.743 48.5175 501.743 46.8535ZM513.435 49.9975V48.7975C513.435 48.3015 513.499 47.8535 513.627 47.4535C513.771 47.0535 513.987 46.6855 514.275 46.3495C514.563 46.0135 514.947 45.7575 515.427 45.5815C515.923 45.3895 516.507 45.2935 517.179 45.2935C517.803 45.2935 518.419 45.3015 519.027 45.3175C519.651 45.3175 520.283 45.3095 520.923 45.2935C520.939 44.7655 520.939 44.4935 520.923 44.4775C520.923 44.1415 520.883 43.8695 520.803 43.6615C520.739 43.4535 520.627 43.2935 520.467 43.1815C520.307 43.0695 520.131 42.9975 519.939 42.9655C519.747 42.9335 519.507 42.9175 519.219 42.9175C518.179 42.9175 516.395 43.0055 513.867 43.1815V41.1175C515.291 40.5575 517.227 40.2695 519.675 40.2535C521.147 40.2535 522.283 40.5655 523.083 41.1895C523.883 41.7975 524.283 42.8535 524.283 44.3575V53.2375H521.619L520.923 51.8455C520.859 51.9575 520.651 52.1335 520.299 52.3735C519.963 52.5975 519.483 52.8295 518.859 53.0695C518.235 53.2935 517.627 53.3975 517.035 53.3815C515.883 53.3495 514.995 53.0055 514.371 52.3495C513.747 51.6775 513.435 50.8935 513.435 49.9975ZM516.795 49.5175C516.795 49.9975 516.899 50.3175 517.107 50.4775C517.315 50.6215 517.611 50.6935 517.995 50.6935C518.187 50.6935 518.387 50.6775 518.595 50.6455C518.803 50.5975 518.995 50.5495 519.171 50.5015C519.363 50.4375 519.547 50.3735 519.723 50.3095C519.899 50.2295 520.059 50.1575 520.203 50.0935C520.347 50.0135 520.467 49.9495 520.563 49.9015C520.675 49.8375 520.763 49.7895 520.827 49.7575C520.891 49.7095 520.923 49.6855 520.923 49.6855V47.3575L517.827 47.5975C517.619 47.6135 517.443 47.6695 517.299 47.7655C517.155 47.8455 517.043 47.9495 516.963 48.0775C516.899 48.2055 516.851 48.3335 516.819 48.4615C516.803 48.5895 516.795 48.7335 516.795 48.8935V49.5175ZM526.048 46.9255C526.048 46.0455 526.08 45.2935 526.144 44.6695C526.208 44.0295 526.328 43.4215 526.504 42.8455C526.68 42.2695 526.92 41.8055 527.224 41.4535C527.528 41.1015 527.928 40.8215 528.424 40.6135C528.92 40.4055 529.512 40.3015 530.2 40.3015C530.568 40.3015 530.976 40.3335 531.424 40.3975C531.872 40.4615 532.328 40.5575 532.792 40.6855C533.272 40.8135 533.696 40.9655 534.064 41.1415V34.3975H537.424V53.2375H534.64L534.064 51.9415C533.6 52.3255 533.016 52.6615 532.312 52.9495C531.608 53.2375 530.904 53.3815 530.2 53.3815C529.896 53.3815 529.608 53.3575 529.336 53.3095C529.064 53.2615 528.808 53.1895 528.568 53.0935C528.344 52.9975 528.128 52.8855 527.92 52.7575C527.728 52.6135 527.552 52.4455 527.392 52.2535C527.232 52.0615 527.08 51.8615 526.936 51.6535C526.808 51.4295 526.696 51.1895 526.6 50.9335C526.504 50.6615 526.416 50.3815 526.336 50.0935C526.272 49.7895 526.216 49.4695 526.168 49.1335C526.136 48.7815 526.104 48.4295 526.072 48.0775C526.056 47.7095 526.048 47.3255 526.048 46.9255ZM529.408 46.8055C529.408 48.1655 529.544 49.1255 529.816 49.6855C530.088 50.2295 530.512 50.5015 531.088 50.5015C531.68 50.5015 532.224 50.4375 532.72 50.3095C533.232 50.1655 533.68 49.9735 534.064 49.7335V43.4215C533.84 43.3255 533.608 43.2535 533.368 43.2055C533.144 43.1415 532.912 43.0935 532.672 43.0615C532.432 43.0135 532.176 42.9815 531.904 42.9655C531.648 42.9495 531.376 42.9415 531.088 42.9415C530.848 42.9415 530.648 42.9735 530.488 43.0375C530.328 43.0855 530.176 43.1975 530.032 43.3735C529.888 43.5335 529.768 43.7575 529.672 44.0455C529.592 44.3175 529.528 44.6855 529.48 45.1495C529.432 45.5975 529.408 46.1495 529.408 46.8055ZM539.384 47.0455C539.384 45.7335 539.48 44.6535 539.672 43.8055C539.864 42.9575 540.2 42.2775 540.68 41.7655C541.16 41.2535 541.752 40.8935 542.456 40.6855C543.176 40.4775 544.088 40.3735 545.192 40.3735C547.384 40.3735 548.896 40.8535 549.728 41.8135C550.576 42.7735 551 44.5175 551 47.0455C551 49.4295 550.584 51.0775 549.752 51.9895C548.936 52.9015 547.416 53.3575 545.192 53.3575C544.312 53.3575 543.544 53.2855 542.888 53.1415C542.248 52.9815 541.696 52.7495 541.232 52.4455C540.784 52.1415 540.424 51.7415 540.152 51.2455C539.88 50.7335 539.68 50.1415 539.552 49.4695C539.44 48.7815 539.384 47.9735 539.384 47.0455ZM542.744 47.0455C542.744 47.8615 542.784 48.5095 542.864 48.9895C542.944 49.4695 543.088 49.8375 543.296 50.0935C543.52 50.3335 543.768 50.4855 544.04 50.5495C544.312 50.6135 544.696 50.6455 545.192 50.6455C545.624 50.6455 545.952 50.6295 546.176 50.5975C546.416 50.5655 546.64 50.4855 546.848 50.3575C547.072 50.2295 547.232 50.0295 547.328 49.7575C547.44 49.4855 547.52 49.1415 547.568 48.7255C547.616 48.2935 547.64 47.7335 547.64 47.0455C547.64 46.3095 547.616 45.7175 547.568 45.2695C547.536 44.8055 547.472 44.4215 547.376 44.1175C547.28 43.7975 547.128 43.5735 546.92 43.4455C546.712 43.3015 546.48 43.2055 546.224 43.1575C545.968 43.0935 545.624 43.0615 545.192 43.0615C544.84 43.0615 544.552 43.0775 544.328 43.1095C544.104 43.1415 543.888 43.2135 543.68 43.3255C543.472 43.4215 543.312 43.5575 543.2 43.7335C543.104 43.8935 543.016 44.1255 542.936 44.4295C542.856 44.7335 542.8 45.0935 542.768 45.5095C542.752 45.9255 542.744 46.4375 542.744 47.0455ZM553.006 53.2375V40.4935H555.838L556.366 42.1015C557.566 40.9495 558.782 40.3735 560.014 40.3735C560.702 40.3735 561.174 40.4215 561.43 40.5175V43.7575C560.982 43.7095 560.366 43.6855 559.582 43.6855C558.83 43.6855 558.198 43.7895 557.686 43.9975C557.19 44.1895 556.75 44.5575 556.366 45.1015V53.2375H553.006ZM562.822 46.8055C562.822 45.7015 562.886 44.7815 563.014 44.0455C563.158 43.2935 563.358 42.6775 563.614 42.1975C563.87 41.7015 564.23 41.3255 564.694 41.0695C565.158 40.8135 565.67 40.6375 566.23 40.5415C566.806 40.4455 567.526 40.3975 568.39 40.3975C568.966 40.3975 569.454 40.4135 569.854 40.4455C570.254 40.4615 570.654 40.5095 571.054 40.5895C571.47 40.6535 571.806 40.7575 572.062 40.9015C572.318 41.0295 572.566 41.2135 572.806 41.4535C573.046 41.6775 573.23 41.9575 573.358 42.2935C573.502 42.6135 573.606 43.0055 573.67 43.4695C573.75 43.9175 573.79 44.4375 573.79 45.0295C573.79 46.1495 573.494 46.9655 572.902 47.4775C572.31 47.9895 571.422 48.2455 570.238 48.2455H566.182C566.182 48.9815 566.286 49.5335 566.494 49.9015C566.718 50.2535 566.99 50.4695 567.31 50.5495C567.646 50.6295 568.166 50.6695 568.87 50.6695C570.838 50.6695 572.398 50.5815 573.55 50.4055V52.6855C572.35 53.1335 570.174 53.3575 567.022 53.3575C566.206 53.3575 565.526 53.2375 564.982 52.9975C564.454 52.7575 564.03 52.3655 563.71 51.8215C563.39 51.2775 563.158 50.6055 563.014 49.8055C562.886 49.0055 562.822 48.0055 562.822 46.8055ZM566.182 45.8215H569.374C570.078 45.8215 570.43 45.5015 570.43 44.8615C570.43 44.0615 570.318 43.5495 570.094 43.3255C569.886 43.0855 569.382 42.9655 568.582 42.9655C568.07 42.9655 567.686 42.9895 567.43 43.0375C567.19 43.0695 566.95 43.1815 566.71 43.3735C566.486 43.5495 566.334 43.8295 566.254 44.2135C566.19 44.5975 566.166 45.1335 566.182 45.8215ZM575.263 44.9095V43.8055C575.263 41.5175 576.367 40.3735 578.575 40.3735C582.367 40.3735 584.639 40.5895 585.391 41.0215V43.1335H579.607C579.399 43.1335 579.223 43.1495 579.079 43.1815C578.951 43.2135 578.855 43.2695 578.791 43.3495C578.727 43.4295 578.679 43.5175 578.647 43.6135C578.631 43.7095 578.623 43.8455 578.623 44.0215V44.5975C578.623 44.9655 578.703 45.1975 578.863 45.2935C579.023 45.3735 579.271 45.4135 579.607 45.4135H582.631C583.223 45.4135 583.735 45.5015 584.167 45.6775C584.615 45.8375 584.967 46.0695 585.223 46.3735C585.495 46.6775 585.695 47.0295 585.823 47.4295C585.951 47.8135 586.015 48.2375 586.015 48.7015V50.0215C586.015 51.9415 585.207 53.0375 583.591 53.3095C583.367 53.3415 583.135 53.3575 582.895 53.3575C578.863 53.3575 576.495 53.1255 575.791 52.6615V50.5735H581.815C582.375 50.5735 582.655 50.3015 582.655 49.7575V49.1575C582.655 48.9655 582.631 48.8135 582.583 48.7015C582.551 48.5895 582.471 48.5015 582.343 48.4375C582.215 48.3735 582.039 48.3415 581.815 48.3415H578.839C577.671 48.3415 576.783 48.0695 576.175 47.5255C575.567 46.9815 575.263 46.1095 575.263 44.9095ZM595.423 46.9255C595.423 46.0455 595.455 45.2935 595.519 44.6695C595.583 44.0295 595.703 43.4215 595.879 42.8455C596.055 42.2695 596.295 41.8055 596.599 41.4535C596.903 41.1015 597.303 40.8215 597.799 40.6135C598.295 40.4055 598.887 40.3015 599.575 40.3015C599.943 40.3015 600.351 40.3335 600.799 40.3975C601.247 40.4615 601.703 40.5575 602.167 40.6855C602.647 40.8135 603.071 40.9655 603.439 41.1415V34.3975H606.799V53.2375H604.015L603.439 51.9415C602.975 52.3255 602.391 52.6615 601.687 52.9495C600.983 53.2375 600.279 53.3815 599.575 53.3815C599.271 53.3815 598.983 53.3575 598.711 53.3095C598.439 53.2615 598.183 53.1895 597.943 53.0935C597.719 52.9975 597.503 52.8855 597.295 52.7575C597.103 52.6135 596.927 52.4455 596.767 52.2535C596.607 52.0615 596.455 51.8615 596.311 51.6535C596.183 51.4295 596.071 51.1895 595.975 50.9335C595.879 50.6615 595.791 50.3815 595.711 50.0935C595.647 49.7895 595.591 49.4695 595.543 49.1335C595.511 48.7815 595.479 48.4295 595.447 48.0775C595.431 47.7095 595.423 47.3255 595.423 46.9255ZM598.783 46.8055C598.783 48.1655 598.919 49.1255 599.191 49.6855C599.463 50.2295 599.887 50.5015 600.463 50.5015C601.055 50.5015 601.599 50.4375 602.095 50.3095C602.607 50.1655 603.055 49.9735 603.439 49.7335V43.4215C603.215 43.3255 602.983 43.2535 602.743 43.2055C602.519 43.1415 602.287 43.0935 602.047 43.0615C601.807 43.0135 601.551 42.9815 601.279 42.9655C601.023 42.9495 600.751 42.9415 600.463 42.9415C600.223 42.9415 600.023 42.9735 599.863 43.0375C599.703 43.0855 599.551 43.1975 599.407 43.3735C599.263 43.5335 599.143 43.7575 599.047 44.0455C598.967 44.3175 598.903 44.6855 598.855 45.1495C598.807 45.5975 598.783 46.1495 598.783 46.8055ZM608.759 46.8055C608.759 45.7015 608.823 44.7815 608.951 44.0455C609.095 43.2935 609.295 42.6775 609.551 42.1975C609.807 41.7015 610.167 41.3255 610.631 41.0695C611.095 40.8135 611.607 40.6375 612.167 40.5415C612.743 40.4455 613.463 40.3975 614.327 40.3975C614.903 40.3975 615.391 40.4135 615.791 40.4455C616.191 40.4615 616.591 40.5095 616.991 40.5895C617.407 40.6535 617.743 40.7575 617.999 40.9015C618.255 41.0295 618.503 41.2135 618.743 41.4535C618.983 41.6775 619.167 41.9575 619.295 42.2935C619.439 42.6135 619.543 43.0055 619.607 43.4695C619.687 43.9175 619.727 44.4375 619.727 45.0295C619.727 46.1495 619.431 46.9655 618.839 47.4775C618.247 47.9895 617.359 48.2455 616.175 48.2455H612.119C612.119 48.9815 612.223 49.5335 612.431 49.9015C612.655 50.2535 612.927 50.4695 613.247 50.5495C613.583 50.6295 614.103 50.6695 614.807 50.6695C616.775 50.6695 618.335 50.5815 619.487 50.4055V52.6855C618.287 53.1335 616.111 53.3575 612.959 53.3575C612.143 53.3575 611.463 53.2375 610.919 52.9975C610.391 52.7575 609.967 52.3655 609.647 51.8215C609.327 51.2775 609.095 50.6055 608.951 49.8055C608.823 49.0055 608.759 48.0055 608.759 46.8055ZM612.119 45.8215H615.311C616.015 45.8215 616.367 45.5015 616.367 44.8615C616.367 44.0615 616.255 43.5495 616.031 43.3255C615.823 43.0855 615.319 42.9655 614.519 42.9655C614.007 42.9655 613.623 42.9895 613.367 43.0375C613.127 43.0695 612.887 43.1815 612.647 43.3735C612.423 43.5495 612.271 43.8295 612.191 44.2135C612.127 44.5975 612.103 45.1335 612.119 45.8215ZM629.461 41.5735V40.0615C629.461 39.3895 629.541 38.7895 629.701 38.2615C629.861 37.7335 630.077 37.3015 630.349 36.9655C630.621 36.6295 630.957 36.3575 631.357 36.1495C631.773 35.9255 632.205 35.7735 632.653 35.6935C633.117 35.5975 633.637 35.5415 634.213 35.5255C635.429 35.4935 636.685 35.5495 637.981 35.6935C639.277 35.8375 640.285 36.0135 641.005 36.2215V38.8615C639.181 38.7015 637.221 38.6215 635.125 38.6215C634.277 38.6055 633.677 38.7015 633.325 38.9095C632.989 39.1015 632.821 39.5735 632.821 40.3255V41.1895C632.821 41.8615 632.957 42.3095 633.229 42.5335C633.501 42.7575 633.989 42.8695 634.693 42.8695H637.477C637.893 42.8695 638.277 42.9095 638.629 42.9895C638.997 43.0695 639.309 43.1815 639.565 43.3255C639.837 43.4695 640.077 43.6375 640.285 43.8295C640.509 44.0215 640.693 44.2375 640.837 44.4775C640.997 44.7175 641.125 44.9655 641.221 45.2215C641.333 45.4615 641.413 45.7175 641.461 45.9895C641.525 46.2615 641.565 46.5255 641.581 46.7815C641.613 47.0215 641.629 47.2695 641.629 47.5255V48.7015C641.629 49.4695 641.533 50.1415 641.341 50.7175C641.149 51.2935 640.901 51.7495 640.597 52.0855C640.309 52.4215 639.941 52.6935 639.493 52.9015C639.061 53.1095 638.629 53.2455 638.197 53.3095C637.765 53.3895 637.293 53.4295 636.781 53.4295C633.885 53.4295 631.621 53.1895 629.989 52.7095V50.0695C631.749 50.2455 633.789 50.3335 636.109 50.3335C636.413 50.3335 636.669 50.3175 636.877 50.2855C637.101 50.2535 637.325 50.1895 637.549 50.0935C637.789 49.9975 637.965 49.8455 638.077 49.6375C638.205 49.4135 638.269 49.1415 638.269 48.8215V47.8855C638.269 47.3255 638.157 46.9095 637.933 46.6375C637.709 46.3655 637.293 46.2295 636.685 46.2295H633.997C630.973 46.2135 629.461 44.6615 629.461 41.5735ZM643.161 49.9975V48.7975C643.161 48.3015 643.225 47.8535 643.353 47.4535C643.497 47.0535 643.713 46.6855 644.001 46.3495C644.289 46.0135 644.673 45.7575 645.153 45.5815C645.649 45.3895 646.233 45.2935 646.905 45.2935C647.529 45.2935 648.145 45.3015 648.753 45.3175C649.377 45.3175 650.009 45.3095 650.649 45.2935C650.665 44.7655 650.665 44.4935 650.649 44.4775C650.649 44.1415 650.609 43.8695 650.529 43.6615C650.465 43.4535 650.353 43.2935 650.193 43.1815C650.033 43.0695 649.857 42.9975 649.665 42.9655C649.473 42.9335 649.233 42.9175 648.945 42.9175C647.905 42.9175 646.121 43.0055 643.593 43.1815V41.1175C645.017 40.5575 646.953 40.2695 649.401 40.2535C650.873 40.2535 652.009 40.5655 652.809 41.1895C653.609 41.7975 654.009 42.8535 654.009 44.3575V53.2375H651.345L650.649 51.8455C650.585 51.9575 650.377 52.1335 650.025 52.3735C649.689 52.5975 649.209 52.8295 648.585 53.0695C647.961 53.2935 647.353 53.3975 646.761 53.3815C645.609 53.3495 644.721 53.0055 644.097 52.3495C643.473 51.6775 643.161 50.8935 643.161 49.9975ZM646.521 49.5175C646.521 49.9975 646.625 50.3175 646.833 50.4775C647.041 50.6215 647.337 50.6935 647.721 50.6935C647.913 50.6935 648.113 50.6775 648.321 50.6455C648.529 50.5975 648.721 50.5495 648.897 50.5015C649.089 50.4375 649.273 50.3735 649.449 50.3095C649.625 50.2295 649.785 50.1575 649.929 50.0935C650.073 50.0135 650.193 49.9495 650.289 49.9015C650.401 49.8375 650.489 49.7895 650.553 49.7575C650.617 49.7095 650.649 49.6855 650.649 49.6855V47.3575L647.553 47.5975C647.345 47.6135 647.169 47.6695 647.025 47.7655C646.881 47.8455 646.769 47.9495 646.689 48.0775C646.625 48.2055 646.577 48.3335 646.545 48.4615C646.529 48.5895 646.521 48.7335 646.521 48.8935V49.5175ZM660.311 38.9335L662.471 35.6215H665.423L662.495 38.9335H660.311ZM655.799 48.9655V40.4935H659.159V49.0375C659.159 50.1735 659.631 50.7415 660.575 50.7415C661.215 50.7415 661.751 50.6615 662.183 50.5015C662.631 50.3415 663.119 50.0535 663.647 49.6375V40.4935H667.007V53.2375H664.295L663.647 51.8935C663.503 51.9735 663.303 52.0935 663.047 52.2535C662.791 52.4135 662.591 52.5335 662.447 52.6135C662.303 52.7095 662.119 52.8215 661.895 52.9495C661.655 53.0615 661.431 53.1495 661.223 53.2135C660.727 53.3735 660.183 53.4535 659.591 53.4535C657.063 53.4535 655.799 51.9575 655.799 48.9655ZM668.97 46.9255C668.97 46.0455 669.002 45.2935 669.066 44.6695C669.13 44.0295 669.25 43.4215 669.426 42.8455C669.602 42.2695 669.842 41.8055 670.146 41.4535C670.45 41.1015 670.85 40.8215 671.346 40.6135C671.842 40.4055 672.434 40.3015 673.122 40.3015C673.49 40.3015 673.898 40.3335 674.346 40.3975C674.794 40.4615 675.25 40.5575 675.714 40.6855C676.194 40.8135 676.618 40.9655 676.986 41.1415V34.3975H680.346V53.2375H677.562L676.986 51.9415C676.522 52.3255 675.938 52.6615 675.234 52.9495C674.53 53.2375 673.826 53.3815 673.122 53.3815C672.818 53.3815 672.53 53.3575 672.258 53.3095C671.986 53.2615 671.73 53.1895 671.49 53.0935C671.266 52.9975 671.05 52.8855 670.842 52.7575C670.65 52.6135 670.474 52.4455 670.314 52.2535C670.154 52.0615 670.002 51.8615 669.858 51.6535C669.73 51.4295 669.618 51.1895 669.522 50.9335C669.426 50.6615 669.338 50.3815 669.258 50.0935C669.194 49.7895 669.138 49.4695 669.09 49.1335C669.058 48.7815 669.026 48.4295 668.994 48.0775C668.978 47.7095 668.97 47.3255 668.97 46.9255ZM672.33 46.8055C672.33 48.1655 672.466 49.1255 672.738 49.6855C673.01 50.2295 673.434 50.5015 674.01 50.5015C674.602 50.5015 675.146 50.4375 675.642 50.3095C676.154 50.1655 676.602 49.9735 676.986 49.7335V43.4215C676.762 43.3255 676.53 43.2535 676.29 43.2055C676.066 43.1415 675.834 43.0935 675.594 43.0615C675.354 43.0135 675.098 42.9815 674.826 42.9655C674.57 42.9495 674.298 42.9415 674.01 42.9415C673.77 42.9415 673.57 42.9735 673.41 43.0375C673.25 43.0855 673.098 43.1975 672.954 43.3735C672.81 43.5335 672.69 43.7575 672.594 44.0455C672.514 44.3175 672.45 44.6855 672.402 45.1495C672.354 45.5975 672.33 46.1495 672.33 46.8055ZM682.306 46.8055C682.306 45.7015 682.37 44.7815 682.498 44.0455C682.642 43.2935 682.842 42.6775 683.098 42.1975C683.354 41.7015 683.714 41.3255 684.178 41.0695C684.642 40.8135 685.154 40.6375 685.714 40.5415C686.29 40.4455 687.01 40.3975 687.874 40.3975C688.45 40.3975 688.938 40.4135 689.338 40.4455C689.738 40.4615 690.138 40.5095 690.538 40.5895C690.954 40.6535 691.29 40.7575 691.546 40.9015C691.802 41.0295 692.05 41.2135 692.29 41.4535C692.53 41.6775 692.714 41.9575 692.842 42.2935C692.986 42.6135 693.09 43.0055 693.154 43.4695C693.234 43.9175 693.274 44.4375 693.274 45.0295C693.274 46.1495 692.978 46.9655 692.386 47.4775C691.794 47.9895 690.906 48.2455 689.722 48.2455H685.666C685.666 48.9815 685.77 49.5335 685.978 49.9015C686.202 50.2535 686.474 50.4695 686.794 50.5495C687.13 50.6295 687.65 50.6695 688.354 50.6695C690.322 50.6695 691.882 50.5815 693.034 50.4055V52.6855C691.834 53.1335 689.658 53.3575 686.506 53.3575C685.69 53.3575 685.01 53.2375 684.466 52.9975C683.938 52.7575 683.514 52.3655 683.194 51.8215C682.874 51.2775 682.642 50.6055 682.498 49.8055C682.37 49.0055 682.306 48.0055 682.306 46.8055ZM685.666 45.8215H688.858C689.562 45.8215 689.914 45.5015 689.914 44.8615C689.914 44.0615 689.802 43.5495 689.578 43.3255C689.37 43.0855 688.866 42.9655 688.066 42.9655C687.554 42.9655 687.17 42.9895 686.914 43.0375C686.674 43.0695 686.434 43.1815 686.194 43.3735C685.97 43.5495 685.818 43.8295 685.738 44.2135C685.674 44.5975 685.65 45.1335 685.666 45.8215ZM703.056 53.2375V35.6695H710.616C711.112 35.6695 711.56 35.7095 711.96 35.7895C712.376 35.8535 712.808 35.9975 713.256 36.2215C713.72 36.4455 714.104 36.7495 714.408 37.1335C714.728 37.5175 714.984 38.0455 715.176 38.7175C715.384 39.3895 715.488 40.1815 715.488 41.0935C715.488 41.7335 715.44 42.3255 715.344 42.8695C715.264 43.4135 715.152 43.8775 715.008 44.2615C714.864 44.6295 714.688 44.9655 714.48 45.2695C714.272 45.5575 714.048 45.7895 713.808 45.9655C713.568 46.1255 713.312 46.2695 713.04 46.3975C712.768 46.5255 712.496 46.6135 712.224 46.6615C711.952 46.6935 711.68 46.7255 711.408 46.7575C711.136 46.7735 710.872 46.7735 710.616 46.7575C710.152 46.7255 709.352 46.6455 708.216 46.5175C707.08 46.3895 706.48 46.3095 706.416 46.2775V53.2375H703.056ZM706.416 43.7815H710.352C710.928 43.7815 711.36 43.5895 711.648 43.2055C711.952 42.8215 712.104 42.1255 712.104 41.1175C712.088 39.4695 711.504 38.6455 710.352 38.6455H706.416V43.7815ZM721.694 38.9335L723.854 35.6215H726.806L723.878 38.9335H721.694ZM717.182 48.9655V40.4935H720.542V49.0375C720.542 50.1735 721.014 50.7415 721.958 50.7415C722.598 50.7415 723.134 50.6615 723.566 50.5015C724.014 50.3415 724.502 50.0535 725.03 49.6375V40.4935H728.39V53.2375H725.678L725.03 51.8935C724.886 51.9735 724.686 52.0935 724.43 52.2535C724.174 52.4135 723.974 52.5335 723.83 52.6135C723.686 52.7095 723.502 52.8215 723.278 52.9495C723.038 53.0615 722.814 53.1495 722.606 53.2135C722.11 53.3735 721.566 53.4535 720.974 53.4535C718.446 53.4535 717.182 51.9575 717.182 48.9655ZM730.545 53.2375V34.3975H733.881V41.1415C734.153 40.9975 734.465 40.8775 734.817 40.7815C735.169 40.6695 735.513 40.5815 735.849 40.5175C736.185 40.4535 736.513 40.4055 736.833 40.3735C737.169 40.3255 737.473 40.3015 737.745 40.3015C738.433 40.3015 739.025 40.4135 739.521 40.6375C740.033 40.8455 740.441 41.1335 740.745 41.5015C741.049 41.8535 741.289 42.3175 741.465 42.8935C741.641 43.4695 741.753 44.0695 741.801 44.6935C741.865 45.3175 741.897 46.0615 741.897 46.9255C741.897 48.9895 741.577 50.5815 740.937 51.7015C740.297 52.8215 739.233 53.3815 737.745 53.3815C737.057 53.3815 736.361 53.2375 735.657 52.9495C734.953 52.6615 734.369 52.3255 733.905 51.9415L733.305 53.2375H730.545ZM733.905 49.7335C734.721 50.2455 735.713 50.5015 736.881 50.5015C737.249 50.5015 737.553 50.3975 737.793 50.1895C738.033 49.9655 738.217 49.5815 738.345 49.0375C738.473 48.4775 738.537 47.7335 738.537 46.8055C738.537 45.7495 738.465 44.9335 738.321 44.3575C738.193 43.7815 738.017 43.4055 737.793 43.2295C737.569 43.0375 737.265 42.9415 736.881 42.9415C736.289 42.9415 735.753 42.9815 735.273 43.0615C734.793 43.1255 734.337 43.2455 733.905 43.4215V49.7335ZM743.881 48.7015V34.4455H747.241V48.1735C747.241 49.0215 747.329 49.6135 747.505 49.9495C747.681 50.2855 747.961 50.5255 748.345 50.6695C749.305 51.0055 749.841 51.1735 749.953 51.1735V53.2375H747.169C746.641 53.2375 746.177 53.1575 745.777 52.9975C745.377 52.8375 745.033 52.5895 744.745 52.2535C744.457 51.9015 744.241 51.4295 744.097 50.8375C743.953 50.2455 743.881 49.5335 743.881 48.7015ZM751.212 38.5975V36.4855C751.212 36.0695 751.404 35.8615 751.788 35.8615H754.308C754.66 35.8615 754.836 36.0695 754.836 36.4855V38.5975C754.836 38.7735 754.788 38.9095 754.692 39.0055C754.612 39.1015 754.484 39.1495 754.308 39.1495H751.788C751.676 39.1495 751.572 39.1335 751.476 39.1015C751.396 39.0535 751.332 38.9895 751.284 38.9095C751.236 38.8135 751.212 38.7095 751.212 38.5975ZM751.332 53.2375V40.4935H754.692V53.2375H751.332ZM756.65 46.8535C756.65 45.5735 756.746 44.5015 756.938 43.6375C757.146 42.7575 757.442 42.0935 757.826 41.6455C758.226 41.1815 758.666 40.8535 759.146 40.6615C759.626 40.4695 760.194 40.3735 760.85 40.3735C763.202 40.3735 765.154 40.6215 766.706 41.1175V43.2055C765.186 43.1095 763.714 43.0615 762.29 43.0615C761.906 43.0615 761.618 43.0775 761.426 43.1095C761.25 43.1415 761.05 43.2215 760.826 43.3495C760.602 43.4775 760.442 43.6775 760.346 43.9495C760.25 44.2215 760.17 44.5975 760.106 45.0775C760.042 45.5575 760.01 46.1735 760.01 46.9255C760.01 48.0135 760.082 48.8215 760.226 49.3495C760.386 49.8775 760.61 50.2295 760.898 50.4055C761.202 50.5655 761.666 50.6455 762.29 50.6455C762.946 50.6455 763.658 50.6295 764.426 50.5975C765.194 50.5655 765.794 50.5255 766.226 50.4775L766.874 50.4295V52.5415C766.522 52.7175 766.162 52.8695 765.794 52.9975C765.426 53.1095 764.978 53.1895 764.45 53.2375C763.938 53.2855 763.57 53.3175 763.346 53.3335C763.138 53.3495 762.69 53.3575 762.002 53.3575C761.314 53.3575 760.93 53.3575 760.85 53.3575C759.026 53.3575 757.81 52.5255 757.202 50.8615C756.834 49.8535 756.65 48.5175 756.65 46.8535ZM768.341 49.9975V48.7975C768.341 48.3015 768.405 47.8535 768.533 47.4535C768.677 47.0535 768.893 46.6855 769.181 46.3495C769.469 46.0135 769.853 45.7575 770.333 45.5815C770.829 45.3895 771.413 45.2935 772.085 45.2935C772.709 45.2935 773.325 45.3015 773.933 45.3175C774.557 45.3175 775.189 45.3095 775.829 45.2935C775.845 44.7655 775.845 44.4935 775.829 44.4775C775.829 44.1415 775.789 43.8695 775.709 43.6615C775.645 43.4535 775.533 43.2935 775.373 43.1815C775.213 43.0695 775.037 42.9975 774.845 42.9655C774.653 42.9335 774.413 42.9175 774.125 42.9175C773.085 42.9175 771.301 43.0055 768.773 43.1815V41.1175C770.197 40.5575 772.133 40.2695 774.581 40.2535C776.053 40.2535 777.189 40.5655 777.989 41.1895C778.789 41.7975 779.189 42.8535 779.189 44.3575V53.2375H776.525L775.829 51.8455C775.765 51.9575 775.557 52.1335 775.205 52.3735C774.869 52.5975 774.389 52.8295 773.765 53.0695C773.141 53.2935 772.533 53.3975 771.941 53.3815C770.789 53.3495 769.901 53.0055 769.277 52.3495C768.653 51.6775 768.341 50.8935 768.341 49.9975ZM771.701 49.5175C771.701 49.9975 771.805 50.3175 772.013 50.4775C772.221 50.6215 772.517 50.6935 772.901 50.6935C773.093 50.6935 773.293 50.6775 773.501 50.6455C773.709 50.5975 773.901 50.5495 774.077 50.5015C774.269 50.4375 774.453 50.3735 774.629 50.3095C774.805 50.2295 774.965 50.1575 775.109 50.0935C775.253 50.0135 775.373 49.9495 775.469 49.9015C775.581 49.8375 775.669 49.7895 775.733 49.7575C775.797 49.7095 775.829 49.6855 775.829 49.6855V47.3575L772.733 47.5975C772.525 47.6135 772.349 47.6695 772.205 47.7655C772.061 47.8455 771.949 47.9495 771.869 48.0775C771.805 48.2055 771.757 48.3335 771.725 48.4615C771.709 48.5895 771.701 48.7335 771.701 48.8935V49.5175ZM788.759 46.9255C788.759 46.0455 788.791 45.2935 788.855 44.6695C788.919 44.0295 789.039 43.4215 789.215 42.8455C789.391 42.2695 789.631 41.8055 789.935 41.4535C790.239 41.1015 790.639 40.8215 791.135 40.6135C791.631 40.4055 792.223 40.3015 792.911 40.3015C793.279 40.3015 793.687 40.3335 794.135 40.3975C794.583 40.4615 795.039 40.5575 795.503 40.6855C795.983 40.8135 796.407 40.9655 796.775 41.1415V34.3975H800.135V53.2375H797.351L796.775 51.9415C796.311 52.3255 795.727 52.6615 795.023 52.9495C794.319 53.2375 793.615 53.3815 792.911 53.3815C792.607 53.3815 792.319 53.3575 792.047 53.3095C791.775 53.2615 791.519 53.1895 791.279 53.0935C791.055 52.9975 790.839 52.8855 790.631 52.7575C790.439 52.6135 790.263 52.4455 790.103 52.2535C789.943 52.0615 789.791 51.8615 789.647 51.6535C789.519 51.4295 789.407 51.1895 789.311 50.9335C789.215 50.6615 789.127 50.3815 789.047 50.0935C788.983 49.7895 788.927 49.4695 788.879 49.1335C788.847 48.7815 788.815 48.4295 788.783 48.0775C788.767 47.7095 788.759 47.3255 788.759 46.9255ZM792.119 46.8055C792.119 48.1655 792.255 49.1255 792.527 49.6855C792.799 50.2295 793.223 50.5015 793.799 50.5015C794.391 50.5015 794.935 50.4375 795.431 50.3095C795.943 50.1655 796.391 49.9735 796.775 49.7335V43.4215C796.551 43.3255 796.319 43.2535 796.079 43.2055C795.855 43.1415 795.623 43.0935 795.383 43.0615C795.143 43.0135 794.887 42.9815 794.615 42.9655C794.359 42.9495 794.087 42.9415 793.799 42.9415C793.559 42.9415 793.359 42.9735 793.199 43.0375C793.039 43.0855 792.887 43.1975 792.743 43.3735C792.599 43.5335 792.479 43.7575 792.383 44.0455C792.303 44.3175 792.239 44.6855 792.191 45.1495C792.143 45.5975 792.119 46.1495 792.119 46.8055ZM801.927 49.9975V48.7975C801.927 48.3015 801.991 47.8535 802.119 47.4535C802.263 47.0535 802.479 46.6855 802.767 46.3495C803.055 46.0135 803.439 45.7575 803.919 45.5815C804.415 45.3895 804.999 45.2935 805.671 45.2935C806.295 45.2935 806.911 45.3015 807.519 45.3175C808.143 45.3175 808.775 45.3095 809.415 45.2935C809.431 44.7655 809.431 44.4935 809.415 44.4775C809.415 44.1415 809.375 43.8695 809.295 43.6615C809.231 43.4535 809.119 43.2935 808.959 43.1815C808.799 43.0695 808.623 42.9975 808.431 42.9655C808.239 42.9335 807.999 42.9175 807.711 42.9175C806.671 42.9175 804.887 43.0055 802.359 43.1815V41.1175C803.783 40.5575 805.719 40.2695 808.167 40.2535C809.639 40.2535 810.775 40.5655 811.575 41.1895C812.375 41.7975 812.775 42.8535 812.775 44.3575V53.2375H810.111L809.415 51.8455C809.351 51.9575 809.143 52.1335 808.791 52.3735C808.455 52.5975 807.975 52.8295 807.351 53.0695C806.727 53.2935 806.119 53.3975 805.527 53.3815C804.375 53.3495 803.487 53.0055 802.863 52.3495C802.239 51.6775 801.927 50.8935 801.927 49.9975ZM805.287 49.5175C805.287 49.9975 805.391 50.3175 805.599 50.4775C805.807 50.6215 806.103 50.6935 806.487 50.6935C806.679 50.6935 806.879 50.6775 807.087 50.6455C807.295 50.5975 807.487 50.5495 807.663 50.5015C807.855 50.4375 808.039 50.3735 808.215 50.3095C808.391 50.2295 808.551 50.1575 808.695 50.0935C808.839 50.0135 808.959 49.9495 809.055 49.9015C809.167 49.8375 809.255 49.7895 809.319 49.7575C809.383 49.7095 809.415 49.6855 809.415 49.6855V47.3575L806.319 47.5975C806.111 47.6135 805.935 47.6695 805.791 47.7655C805.647 47.8455 805.535 47.9495 805.455 48.0775C805.391 48.2055 805.343 48.3335 805.311 48.4615C805.295 48.5895 805.287 48.7335 805.287 48.8935V49.5175ZM822.681 53.2375V35.6695H830.361C831.081 35.6695 831.721 35.7655 832.281 35.9575C832.841 36.1335 833.337 36.4295 833.769 36.8455C834.217 37.2455 834.561 37.8135 834.801 38.5495C835.041 39.2695 835.161 40.1335 835.161 41.1415C835.161 41.9735 835.089 42.7015 834.945 43.3255C834.801 43.9495 834.641 44.4295 834.465 44.7655C834.289 45.0855 834.049 45.3735 833.745 45.6295C833.441 45.8695 833.209 46.0215 833.049 46.0855C832.889 46.1495 832.657 46.2295 832.353 46.3255L835.689 53.2375H831.897L828.993 46.5895L826.041 46.2535V53.2375H822.681ZM826.065 43.6135H830.049C830.369 43.6135 830.625 43.5895 830.817 43.5415C831.009 43.4775 831.177 43.3575 831.321 43.1815C831.481 43.0055 831.593 42.7575 831.657 42.4375C831.737 42.1015 831.777 41.6695 831.777 41.1415C831.777 40.1975 831.633 39.5495 831.345 39.1975C831.057 38.8295 830.625 38.6455 830.049 38.6455H826.065V43.6135ZM836.923 46.8055C836.923 45.7015 836.987 44.7815 837.115 44.0455C837.259 43.2935 837.459 42.6775 837.715 42.1975C837.971 41.7015 838.331 41.3255 838.795 41.0695C839.259 40.8135 839.771 40.6375 840.331 40.5415C840.907 40.4455 841.627 40.3975 842.491 40.3975C843.067 40.3975 843.555 40.4135 843.955 40.4455C844.355 40.4615 844.755 40.5095 845.155 40.5895C845.571 40.6535 845.907 40.7575 846.163 40.9015C846.419 41.0295 846.667 41.2135 846.907 41.4535C847.147 41.6775 847.331 41.9575 847.459 42.2935C847.603 42.6135 847.707 43.0055 847.771 43.4695C847.851 43.9175 847.891 44.4375 847.891 45.0295C847.891 46.1495 847.595 46.9655 847.003 47.4775C846.411 47.9895 845.523 48.2455 844.339 48.2455H840.283C840.283 48.9815 840.387 49.5335 840.595 49.9015C840.819 50.2535 841.091 50.4695 841.411 50.5495C841.747 50.6295 842.267 50.6695 842.971 50.6695C844.939 50.6695 846.499 50.5815 847.651 50.4055V52.6855C846.451 53.1335 844.275 53.3575 841.123 53.3575C840.307 53.3575 839.627 53.2375 839.083 52.9975C838.555 52.7575 838.131 52.3655 837.811 51.8215C837.491 51.2775 837.259 50.6055 837.115 49.8055C836.987 49.0055 836.923 48.0055 836.923 46.8055ZM840.283 45.8215H843.475C844.179 45.8215 844.531 45.5015 844.531 44.8615C844.531 44.0615 844.419 43.5495 844.195 43.3255C843.987 43.0855 843.483 42.9655 842.683 42.9655C842.171 42.9655 841.787 42.9895 841.531 43.0375C841.291 43.0695 841.051 43.1815 840.811 43.3735C840.587 43.5495 840.435 43.8295 840.355 44.2135C840.291 44.5975 840.267 45.1335 840.283 45.8215ZM849.485 50.7895C849.485 50.2455 849.605 49.7735 849.845 49.3735C850.101 48.9575 850.477 48.6695 850.973 48.5095C850.845 48.4295 850.725 48.3335 850.613 48.2215C850.501 48.1095 850.397 47.9895 850.301 47.8615C850.221 47.7335 850.141 47.5975 850.061 47.4535C849.997 47.2935 849.933 47.1335 849.869 46.9735C849.821 46.8135 849.773 46.6535 849.725 46.4935C849.693 46.3175 849.661 46.1495 849.629 45.9895C849.613 45.8135 849.597 45.6455 849.581 45.4855C849.581 45.3095 849.581 45.1415 849.581 44.9815C849.581 41.9575 851.053 40.4455 853.997 40.4455H861.749V42.4615L860.333 42.8935C860.333 42.8935 860.357 42.9575 860.405 43.0855C860.453 43.1975 860.477 43.2695 860.477 43.3015C860.493 43.3175 860.517 43.3815 860.549 43.4935C860.597 43.6055 860.629 43.6935 860.645 43.7575C860.661 43.8215 860.677 43.9175 860.693 44.0455C860.725 44.1735 860.741 44.3015 860.741 44.4295C860.757 44.5415 860.773 44.6855 860.789 44.8615C860.805 45.0215 860.813 45.1975 860.813 45.3895C860.813 45.6295 860.797 45.8695 860.765 46.1095C860.733 46.3335 860.685 46.5735 860.621 46.8295C860.557 47.0855 860.469 47.3255 860.357 47.5495C860.261 47.7735 860.133 47.9975 859.973 48.2215C859.813 48.4295 859.621 48.6215 859.397 48.7975C859.173 48.9735 858.917 49.1255 858.629 49.2535C858.357 49.3815 858.029 49.4855 857.645 49.5655C857.277 49.6295 856.877 49.6615 856.445 49.6615H853.493C853.317 49.6615 853.173 49.6695 853.061 49.6855C852.949 49.7015 852.829 49.7575 852.701 49.8535C852.589 49.9335 852.533 50.0535 852.533 50.2135C852.533 50.4695 852.613 50.6455 852.773 50.7415C852.949 50.8215 853.189 50.8615 853.493 50.8615H857.405C858.589 50.8615 859.509 51.1815 860.165 51.8215C860.837 52.4455 861.173 53.3895 861.173 54.6535V56.0215C861.173 56.2615 861.157 56.4855 861.125 56.6935C861.093 56.9175 861.045 57.1415 860.981 57.3655C860.933 57.5895 860.853 57.7975 860.741 57.9895C860.629 58.1975 860.501 58.3895 860.357 58.5655C860.213 58.7415 860.037 58.8935 859.829 59.0215C859.621 59.1655 859.389 59.2855 859.133 59.3815C858.877 59.4935 858.581 59.5735 858.245 59.6215C857.925 59.6855 857.573 59.7175 857.189 59.7175H853.589C852.805 59.7175 852.117 59.5895 851.525 59.3335C850.949 59.0775 850.485 58.6615 850.133 58.0855C849.781 57.5255 849.605 56.8375 849.605 56.0215V54.4135L850.733 53.2375C850.557 53.1415 850.397 53.0215 850.253 52.8775C850.109 52.7175 849.973 52.5335 849.845 52.3255C849.733 52.1175 849.645 51.8855 849.581 51.6295C849.517 51.3575 849.485 51.0775 849.485 50.7895ZM852.989 55.6135C852.989 55.9175 853.021 56.1655 853.085 56.3575C853.165 56.5495 853.277 56.6935 853.421 56.7895C853.581 56.8855 853.733 56.9495 853.877 56.9815C854.037 57.0135 854.245 57.0295 854.501 57.0295H856.469C856.773 57.0295 857.013 56.9895 857.189 56.9095C857.381 56.8455 857.517 56.7495 857.597 56.6215C857.693 56.4935 857.757 56.3575 857.789 56.2135C857.821 56.0695 857.837 55.8935 857.837 55.6855V54.7495C857.837 54.6535 857.829 54.5655 857.813 54.4855C857.797 54.4055 857.781 54.3255 857.765 54.2455C857.749 54.1815 857.717 54.1175 857.669 54.0535C857.637 54.0055 857.597 53.9495 857.549 53.8855C857.501 53.8375 857.445 53.7975 857.381 53.7655C857.317 53.7335 857.245 53.7015 857.165 53.6695C857.085 53.6375 856.997 53.6135 856.901 53.5975C856.805 53.5815 856.701 53.5735 856.589 53.5735H853.997L852.989 53.5015V55.6135ZM852.941 44.9815C852.941 46.2935 853.453 46.9495 854.477 46.9495H855.821C856.925 46.9495 857.469 46.2935 857.453 44.9815C857.437 44.3095 857.301 43.8375 857.045 43.5655C856.805 43.2775 856.389 43.1335 855.797 43.1335H854.525C854.189 43.1335 853.909 43.1895 853.685 43.3015C853.477 43.3975 853.317 43.5415 853.205 43.7335C853.109 43.9095 853.037 44.0935 852.989 44.2855C852.957 44.4775 852.941 44.7095 852.941 44.9815ZM862.962 38.5975V36.4855C862.962 36.0695 863.154 35.8615 863.538 35.8615H866.058C866.41 35.8615 866.586 36.0695 866.586 36.4855V38.5975C866.586 38.7735 866.538 38.9095 866.442 39.0055C866.362 39.1015 866.234 39.1495 866.058 39.1495H863.538C863.426 39.1495 863.322 39.1335 863.226 39.1015C863.146 39.0535 863.082 38.9895 863.034 38.9095C862.986 38.8135 862.962 38.7095 862.962 38.5975ZM863.082 53.2375V40.4935H866.442V53.2375H863.082ZM875.24 36.6535C875.848 36.6535 876.552 36.3495 877.352 35.7415L877.928 37.1815C876.936 38.2695 876.04 38.8135 875.24 38.8135C874.84 38.8135 874.36 38.6775 873.8 38.4055C873.24 38.1175 872.848 37.9735 872.624 37.9735C872.416 37.9735 872.232 37.9895 872.072 38.0215C871.912 38.0375 871.784 38.0615 871.688 38.0935C871.592 38.1095 871.472 38.1495 871.328 38.2135C871.168 38.2935 871.056 38.3495 870.992 38.3815C870.944 38.4135 870.832 38.4855 870.656 38.5975C870.464 38.7095 870.336 38.7815 870.272 38.8135L869.696 37.4935C870.704 36.3735 871.664 35.8135 872.576 35.8135C872.976 35.8295 873.44 35.9735 873.968 36.2455C874.496 36.5175 874.832 36.6535 874.976 36.6535H875.24ZM868.64 41.0935C870.096 40.5335 872.04 40.2535 874.472 40.2535C875.944 40.2535 877.072 40.5655 877.856 41.1895C878.656 41.7975 879.056 42.8535 879.056 44.3575V53.2375H876.392L875.696 51.8455C875.632 51.9575 875.424 52.1335 875.072 52.3735C874.736 52.5975 874.264 52.8215 873.656 53.0455C873.048 53.2695 872.464 53.3815 871.904 53.3815C870.72 53.3815 869.808 53.0455 869.168 52.3735C868.528 51.6855 868.208 50.8935 868.208 49.9975V48.7975C868.208 47.7735 868.512 46.9335 869.12 46.2775C869.728 45.6215 870.664 45.2935 871.928 45.2935H874.76H875.696V44.6935V44.4775C875.696 43.8375 875.56 43.4135 875.288 43.2055C875.016 43.0135 874.472 42.9175 873.656 42.9175C872.84 42.9175 871.168 43.0055 868.64 43.1815V41.0935ZM871.568 49.5175C871.568 49.9975 871.672 50.3095 871.88 50.4535C872.088 50.6135 872.392 50.6935 872.792 50.6935C873.192 50.6935 873.632 50.6135 874.112 50.4535C874.608 50.2775 874.992 50.1095 875.264 49.9495L875.696 49.6855V47.3575L872.6 47.5975C871.912 47.6615 871.568 48.0935 871.568 48.8935V49.5175ZM880.845 47.0455C880.845 45.7335 880.941 44.6535 881.133 43.8055C881.325 42.9575 881.661 42.2775 882.141 41.7655C882.621 41.2535 883.213 40.8935 883.917 40.6855C884.637 40.4775 885.549 40.3735 886.653 40.3735C888.845 40.3735 890.357 40.8535 891.189 41.8135C892.037 42.7735 892.461 44.5175 892.461 47.0455C892.461 49.4295 892.045 51.0775 891.213 51.9895C890.397 52.9015 888.877 53.3575 886.653 53.3575C885.773 53.3575 885.005 53.2855 884.349 53.1415C883.709 52.9815 883.157 52.7495 882.693 52.4455C882.245 52.1415 881.885 51.7415 881.613 51.2455C881.341 50.7335 881.141 50.1415 881.013 49.4695C880.901 48.7815 880.845 47.9735 880.845 47.0455ZM884.205 47.0455C884.205 47.8615 884.245 48.5095 884.325 48.9895C884.405 49.4695 884.549 49.8375 884.757 50.0935C884.981 50.3335 885.229 50.4855 885.501 50.5495C885.773 50.6135 886.157 50.6455 886.653 50.6455C887.085 50.6455 887.413 50.6295 887.637 50.5975C887.877 50.5655 888.101 50.4855 888.309 50.3575C888.533 50.2295 888.693 50.0295 888.789 49.7575C888.901 49.4855 888.981 49.1415 889.029 48.7255C889.077 48.2935 889.101 47.7335 889.101 47.0455C889.101 46.3095 889.077 45.7175 889.029 45.2695C888.997 44.8055 888.933 44.4215 888.837 44.1175C888.741 43.7975 888.589 43.5735 888.381 43.4455C888.173 43.3015 887.941 43.2055 887.685 43.1575C887.429 43.0935 887.085 43.0615 886.653 43.0615C886.301 43.0615 886.013 43.0775 885.789 43.1095C885.565 43.1415 885.349 43.2135 885.141 43.3255C884.933 43.4215 884.773 43.5575 884.661 43.7335C884.565 43.8935 884.477 44.1255 884.397 44.4295C884.317 44.7335 884.261 45.0935 884.229 45.5095C884.213 45.9255 884.205 46.4375 884.205 47.0455ZM902.367 41.5735V40.0615C902.367 39.3895 902.447 38.7895 902.607 38.2615C902.767 37.7335 902.983 37.3015 903.255 36.9655C903.527 36.6295 903.863 36.3575 904.263 36.1495C904.679 35.9255 905.111 35.7735 905.559 35.6935C906.023 35.5975 906.543 35.5415 907.119 35.5255C908.335 35.4935 909.591 35.5495 910.887 35.6935C912.183 35.8375 913.191 36.0135 913.911 36.2215V38.8615C912.087 38.7015 910.127 38.6215 908.031 38.6215C907.183 38.6055 906.583 38.7015 906.231 38.9095C905.895 39.1015 905.727 39.5735 905.727 40.3255V41.1895C905.727 41.8615 905.863 42.3095 906.135 42.5335C906.407 42.7575 906.895 42.8695 907.599 42.8695H910.383C910.799 42.8695 911.183 42.9095 911.535 42.9895C911.903 43.0695 912.215 43.1815 912.471 43.3255C912.743 43.4695 912.983 43.6375 913.191 43.8295C913.415 44.0215 913.599 44.2375 913.743 44.4775C913.903 44.7175 914.031 44.9655 914.127 45.2215C914.239 45.4615 914.319 45.7175 914.367 45.9895C914.431 46.2615 914.471 46.5255 914.487 46.7815C914.519 47.0215 914.535 47.2695 914.535 47.5255V48.7015C914.535 49.4695 914.439 50.1415 914.247 50.7175C914.055 51.2935 913.807 51.7495 913.503 52.0855C913.215 52.4215 912.847 52.6935 912.399 52.9015C911.967 53.1095 911.535 53.2455 911.103 53.3095C910.671 53.3895 910.199 53.4295 909.687 53.4295C906.791 53.4295 904.527 53.1895 902.895 52.7095V50.0695C904.655 50.2455 906.695 50.3335 909.015 50.3335C909.319 50.3335 909.575 50.3175 909.783 50.2855C910.007 50.2535 910.231 50.1895 910.455 50.0935C910.695 49.9975 910.871 49.8455 910.983 49.6375C911.111 49.4135 911.175 49.1415 911.175 48.8215V47.8855C911.175 47.3255 911.063 46.9095 910.839 46.6375C910.615 46.3655 910.199 46.2295 909.591 46.2295H906.903C903.879 46.2135 902.367 44.6615 902.367 41.5735ZM916.236 48.9655V40.4935H919.596V49.0375C919.596 50.1735 920.068 50.7415 921.012 50.7415C921.444 50.7415 921.836 50.7015 922.188 50.6215C922.54 50.5415 922.852 50.4295 923.124 50.2855C923.412 50.1255 923.732 49.9095 924.084 49.6375V40.4935H927.444V53.2375H924.732L924.084 51.8935C923.94 51.9735 923.708 52.1175 923.388 52.3255C923.068 52.5335 922.82 52.6855 922.644 52.7815C922.484 52.8775 922.252 52.9895 921.948 53.1175C921.66 53.2455 921.364 53.3335 921.06 53.3815C920.756 53.4295 920.412 53.4535 920.028 53.4535C917.5 53.4535 916.236 51.9575 916.236 48.9655ZM929.623 48.7015V34.4455H932.983V48.1735C932.983 49.0215 933.071 49.6135 933.247 49.9495C933.423 50.2855 933.703 50.5255 934.087 50.6695C935.047 51.0055 935.583 51.1735 935.695 51.1735V53.2375H932.911C932.383 53.2375 931.919 53.1575 931.519 52.9975C931.119 52.8375 930.775 52.5895 930.487 52.2535C930.199 51.9015 929.983 51.4295 929.839 50.8375C929.695 50.2455 929.623 49.5335 929.623 48.7015ZM945.215 45.4135C945.215 41.3815 946.255 37.6375 948.335 34.1815C948.751 33.5095 949.111 32.9815 949.415 32.5975H952.559C952.447 32.7575 952.303 32.9895 952.127 33.2935C951.951 33.5975 951.631 34.2215 951.167 35.1655C950.703 36.0935 950.295 37.0375 949.943 37.9975C949.607 38.9415 949.295 40.1015 949.007 41.4775C948.719 42.8375 948.575 44.1495 948.575 45.4135C948.575 46.7895 948.711 48.1735 948.983 49.5655C949.255 50.9575 949.583 52.1575 949.967 53.1655C950.351 54.1575 950.743 55.0535 951.143 55.8535C951.543 56.6535 951.871 57.2535 952.127 57.6535C952.399 58.0695 952.543 58.2775 952.559 58.2775H949.415C949.415 58.2775 949.175 57.9815 948.695 57.3895C946.855 54.8615 945.743 51.7495 945.359 48.0535C945.263 47.1895 945.215 46.3095 945.215 45.4135ZM953.638 38.5495V36.0535C955.99 35.6375 958.422 35.4295 960.934 35.4295C962.71 35.4295 964.03 35.9655 964.894 37.0375C965.726 38.0615 966.142 39.3415 966.142 40.8775C966.142 43.5495 963.934 46.6375 959.518 50.1415H966.142V53.2375H953.83V50.2855C955.11 49.4215 956.326 48.4935 957.478 47.5015C958.646 46.5095 959.574 45.6615 960.262 44.9575C960.966 44.2535 961.558 43.5255 962.038 42.7735C962.518 42.0375 962.758 41.4055 962.758 40.8775C962.758 40.3495 962.662 39.9095 962.47 39.5575C962.086 38.8855 961.222 38.5495 959.878 38.5495H953.638ZM968.299 48.9655V40.0855C968.299 38.6615 968.691 37.5735 969.475 36.8215C970.275 36.0535 971.355 35.6695 972.715 35.6695H976.651C978.827 35.6695 980.171 36.5495 980.683 38.3095C980.827 38.8055 980.899 39.3495 980.899 39.9415V48.9655C980.899 50.3575 980.531 51.4135 979.795 52.1335C979.043 52.8695 977.987 53.2375 976.627 53.2375H972.691C971.315 53.2375 970.243 52.8775 969.475 52.1575C968.691 51.4375 968.299 50.3735 968.299 48.9655ZM971.659 48.4135C971.659 49.5655 972.259 50.1415 973.459 50.1415H975.787C976.379 50.1415 976.819 50.0135 977.107 49.7575C977.395 49.5015 977.539 49.0615 977.539 48.4375V40.4695C977.539 39.3335 976.995 38.7655 975.907 38.7655H973.387C972.731 38.7655 972.275 38.9335 972.019 39.2695C971.779 39.6215 971.659 40.0215 971.659 40.4695V48.4135ZM989.609 35.6695V53.2375H986.249V39.0055L982.865 39.8455V37.6615L986.273 35.6695H989.609ZM999.187 53.4055H997.795H997.339C997.243 53.4055 996.971 53.3975 996.523 53.3815C996.091 53.3815 995.795 53.3815 995.635 53.3815C995.475 53.3655 995.211 53.3495 994.843 53.3335C994.475 53.3015 994.187 53.2695 993.979 53.2375C993.787 53.2055 993.539 53.1655 993.235 53.1175C992.755 53.0375 992.259 52.9095 991.747 52.7335L991.771 50.2855H997.867C998.779 50.2855 999.419 50.1895 999.787 49.9975C1000.14 49.8055 1000.31 49.3575 1000.31 48.6535V47.8855C1000.31 47.2135 1000.12 46.7575 999.739 46.5175C999.371 46.2615 998.795 46.1175 998.011 46.0855L993.235 45.8935V43.2055L998.011 42.9655C998.859 42.9175 999.467 42.7735 999.835 42.5335C1000.19 42.2775 1000.36 41.8455 1000.36 41.2375V40.3735C1000.36 39.9415 1000.25 39.5975 1000.03 39.3415C999.787 39.0855 999.507 38.9175 999.187 38.8375C998.867 38.7575 998.475 38.7175 998.011 38.7175H991.603V36.2935C992.915 35.8295 994.987 35.5975 997.819 35.5975C998.347 35.5975 998.859 35.6055 999.355 35.6215C1000.68 35.6535 1001.74 36.0455 1002.52 36.7975C1003.31 37.5495 1003.7 38.5655 1003.7 39.8455V41.0935C1003.7 42.9175 1003.09 44.0535 1001.87 44.5015C1003.09 45.0135 1003.7 46.2135 1003.7 48.1015V49.1095C1003.7 50.5015 1003.31 51.5655 1002.55 52.3015C1001.78 53.0375 1000.66 53.4055 999.187 53.4055ZM1005.52 47.6935V44.8615H1013.06V47.6935H1005.52ZM1014.25 38.5495V36.0535C1016.6 35.6375 1019.03 35.4295 1021.54 35.4295C1023.32 35.4295 1024.64 35.9655 1025.5 37.0375C1026.34 38.0615 1026.75 39.3415 1026.75 40.8775C1026.75 43.5495 1024.54 46.6375 1020.13 50.1415H1026.75V53.2375H1014.44V50.2855C1015.72 49.4215 1016.94 48.4935 1018.09 47.5015C1019.26 46.5095 1020.18 45.6615 1020.87 44.9575C1021.58 44.2535 1022.17 43.5255 1022.65 42.7735C1023.13 42.0375 1023.37 41.4055 1023.37 40.8775C1023.37 40.3495 1023.27 39.9095 1023.08 39.5575C1022.7 38.8855 1021.83 38.5495 1020.49 38.5495H1014.25ZM1028.91 48.9655V40.0855C1028.91 38.6615 1029.3 37.5735 1030.08 36.8215C1030.88 36.0535 1031.96 35.6695 1033.32 35.6695H1037.26C1039.44 35.6695 1040.78 36.5495 1041.29 38.3095C1041.44 38.8055 1041.51 39.3495 1041.51 39.9415V48.9655C1041.51 50.3575 1041.14 51.4135 1040.4 52.1335C1039.65 52.8695 1038.6 53.2375 1037.24 53.2375H1033.3C1031.92 53.2375 1030.85 52.8775 1030.08 52.1575C1029.3 51.4375 1028.91 50.3735 1028.91 48.9655ZM1032.27 48.4135C1032.27 49.5655 1032.87 50.1415 1034.07 50.1415H1036.4C1036.99 50.1415 1037.43 50.0135 1037.72 49.7575C1038 49.5015 1038.15 49.0615 1038.15 48.4375V40.4695C1038.15 39.3335 1037.6 38.7655 1036.52 38.7655H1034C1033.34 38.7655 1032.88 38.9335 1032.63 39.2695C1032.39 39.6215 1032.27 40.0215 1032.27 40.4695V48.4135ZM1050.22 35.6695V53.2375H1046.86V39.0055L1043.47 39.8455V37.6615L1046.88 35.6695H1050.22ZM1052.21 38.7655V35.6695H1063.52L1064.43 37.2055L1058.55 53.2375H1054.88L1060.28 38.7655H1052.21ZM1065.31 58.2775C1065.42 58.1335 1065.57 57.9175 1065.74 57.6295C1065.92 57.3575 1066.23 56.7735 1066.68 55.8775C1067.14 54.9975 1067.55 54.0855 1067.9 53.1415C1068.25 52.1975 1068.57 51.0215 1068.86 49.6135C1069.15 48.1895 1069.29 46.7895 1069.29 45.4135C1069.29 44.1495 1069.16 42.8455 1068.89 41.5015C1068.61 40.1575 1068.28 38.9815 1067.88 37.9735C1067.49 36.9495 1067.1 36.0215 1066.7 35.1895C1066.32 34.3415 1065.99 33.7015 1065.72 33.2695L1065.31 32.5975H1068.45C1068.57 32.7415 1068.71 32.9415 1068.89 33.1975C1069.08 33.4535 1069.41 34.0135 1069.89 34.8775C1070.39 35.7255 1070.82 36.6135 1071.19 37.5415C1071.56 38.4695 1071.89 39.6535 1072.2 41.0935C1072.5 42.5175 1072.65 43.9575 1072.65 45.4135C1072.65 46.5975 1072.57 47.7415 1072.41 48.8455C1072.27 49.9495 1072.07 50.9175 1071.81 51.7495C1071.57 52.5815 1071.3 53.3655 1071 54.1015C1070.69 54.8375 1070.39 55.4535 1070.09 55.9495C1069.8 56.4455 1069.53 56.8695 1069.27 57.2215C1069.03 57.5895 1068.83 57.8615 1068.67 58.0375L1068.45 58.2775H1065.31Z" fill="white"/>
<path d="M243 65.425V10" stroke="#A9A9A9" stroke-width="2"/>
<defs>
<filter id="filter0_dd_648_3" x="248" y="66.8208" width="219.8" height="146.035" filterUnits="userSpaceOnUse" color-interpolation-filters="sRGB">
<feFlood flood-opacity="0" result="BackgroundImageFix"/>
<feColorMatrix in="SourceAlpha" type="matrix" values="0 0 0 0 0 0 0 0 0 0 0 0 0 0 0 0 0 0 127 0" result="hardAlpha"/>
<feMorphology radius="4" operator="dilate" in="SourceAlpha" result="effect1_dropShadow_648_3"/>
<feOffset dx="4"/>
<feGaussianBlur stdDeviation="5"/>
<feComposite in2="hardAlpha" operator="out"/>
<feColorMatrix type="matrix" values="0 0 0 0 0 0 0 0 0 0 0 0 0 0 0 0 0 0 0.1 0"/>
<feBlend mode="normal" in2="BackgroundImageFix" result="effect1_dropShadow_648_3"/>
<feColorMatrix in="SourceAlpha" type="matrix" values="0 0 0 0 0 0 0 0 0 0 0 0 0 0 0 0 0 0 127 0" result="hardAlpha"/>
<feOffset dy="4"/>
<feGaussianBlur stdDeviation="2"/>
<feComposite in2="hardAlpha" operator="out"/>
<feColorMatrix type="matrix" values="0 0 0 0 0 0 0 0 0 0 0 0 0 0 0 0 0 0 0.1 0"/>
<feBlend mode="normal" in2="effect1_dropShadow_648_3" result="effect2_dropShadow_648_3"/>
<feBlend mode="normal" in="SourceGraphic" in2="effect2_dropShadow_648_3" result="shape"/>
</filter>
<filter id="filter1_dd_648_3" x="455" y="66.8208" width="219.8" height="146.035" filterUnits="userSpaceOnUse" color-interpolation-filters="sRGB">
<feFlood flood-opacity="0" result="BackgroundImageFix"/>
<feColorMatrix in="SourceAlpha" type="matrix" values="0 0 0 0 0 0 0 0 0 0 0 0 0 0 0 0 0 0 127 0" result="hardAlpha"/>
<feMorphology radius="4" operator="dilate" in="SourceAlpha" result="effect1_dropShadow_648_3"/>
<feOffset dx="4"/>
<feGaussianBlur stdDeviation="5"/>
<feComposite in2="hardAlpha" operator="out"/>
<feColorMatrix type="matrix" values="0 0 0 0 0 0 0 0 0 0 0 0 0 0 0 0 0 0 0.1 0"/>
<feBlend mode="normal" in2="BackgroundImageFix" result="effect1_dropShadow_648_3"/>
<feColorMatrix in="SourceAlpha" type="matrix" values="0 0 0 0 0 0 0 0 0 0 0 0 0 0 0 0 0 0 127 0" result="hardAlpha"/>
<feOffset dy="4"/>
<feGaussianBlur stdDeviation="2"/>
<feComposite in2="hardAlpha" operator="out"/>
<feColorMatrix type="matrix" values="0 0 0 0 0 0 0 0 0 0 0 0 0 0 0 0 0 0 0.1 0"/>
<feBlend mode="normal" in2="effect1_dropShadow_648_3" result="effect2_dropShadow_648_3"/>
<feBlend mode="normal" in="SourceGraphic" in2="effect2_dropShadow_648_3" result="shape"/>
</filter>
<filter id="filter2_dd_648_3" x="661" y="66.8208" width="219.8" height="146.035" filterUnits="userSpaceOnUse" color-interpolation-filters="sRGB">
<feFlood flood-opacity="0" result="BackgroundImageFix"/>
<feColorMatrix in="SourceAlpha" type="matrix" values="0 0 0 0 0 0 0 0 0 0 0 0 0 0 0 0 0 0 127 0" result="hardAlpha"/>
<feMorphology radius="4" operator="dilate" in="SourceAlpha" result="effect1_dropShadow_648_3"/>
<feOffset dx="4"/>
<feGaussianBlur stdDeviation="5"/>
<feComposite in2="hardAlpha" operator="out"/>
<feColorMatrix type="matrix" values="0 0 0 0 0 0 0 0 0 0 0 0 0 0 0 0 0 0 0.1 0"/>
<feBlend mode="normal" in2="BackgroundImageFix" result="effect1_dropShadow_648_3"/>
<feColorMatrix in="SourceAlpha" type="matrix" values="0 0 0 0 0 0 0 0 0 0 0 0 0 0 0 0 0 0 127 0" result="hardAlpha"/>
<feOffset dy="4"/>
<feGaussianBlur stdDeviation="2"/>
<feComposite in2="hardAlpha" operator="out"/>
<feColorMatrix type="matrix" values="0 0 0 0 0 0 0 0 0 0 0 0 0 0 0 0 0 0 0.1 0"/>
<feBlend mode="normal" in2="effect1_dropShadow_648_3" result="effect2_dropShadow_648_3"/>
<feBlend mode="normal" in="SourceGraphic" in2="effect2_dropShadow_648_3" result="shape"/>
</filter>
<filter id="filter3_dd_648_3" x="868" y="66.8208" width="219.8" height="146.035" filterUnits="userSpaceOnUse" color-interpolation-filters="sRGB">
<feFlood flood-opacity="0" result="BackgroundImageFix"/>
<feColorMatrix in="SourceAlpha" type="matrix" values="0 0 0 0 0 0 0 0 0 0 0 0 0 0 0 0 0 0 127 0" result="hardAlpha"/>
<feMorphology radius="4" operator="dilate" in="SourceAlpha" result="effect1_dropShadow_648_3"/>
<feOffset dx="4"/>
<feGaussianBlur stdDeviation="5"/>
<feComposite in2="hardAlpha" operator="out"/>
<feColorMatrix type="matrix" values="0 0 0 0 0 0 0 0 0 0 0 0 0 0 0 0 0 0 0.1 0"/>
<feBlend mode="normal" in2="BackgroundImageFix" result="effect1_dropShadow_648_3"/>
<feColorMatrix in="SourceAlpha" type="matrix" values="0 0 0 0 0 0 0 0 0 0 0 0 0 0 0 0 0 0 127 0" result="hardAlpha"/>
<feOffset dy="4"/>
<feGaussianBlur stdDeviation="2"/>
<feComposite in2="hardAlpha" operator="out"/>
<feColorMatrix type="matrix" values="0 0 0 0 0 0 0 0 0 0 0 0 0 0 0 0 0 0 0.1 0"/>
<feBlend mode="normal" in2="effect1_dropShadow_648_3" result="effect2_dropShadow_648_3"/>
<feBlend mode="normal" in="SourceGraphic" in2="effect2_dropShadow_648_3" result="shape"/>
</filter>
<filter id="filter4_dd_648_3" x="1075" y="66.8208" width="219.8" height="146.035" filterUnits="userSpaceOnUse" color-interpolation-filters="sRGB">
<feFlood flood-opacity="0" result="BackgroundImageFix"/>
<feColorMatrix in="SourceAlpha" type="matrix" values="0 0 0 0 0 0 0 0 0 0 0 0 0 0 0 0 0 0 127 0" result="hardAlpha"/>
<feMorphology radius="4" operator="dilate" in="SourceAlpha" result="effect1_dropShadow_648_3"/>
<feOffset dx="4"/>
<feGaussianBlur stdDeviation="5"/>
<feComposite in2="hardAlpha" operator="out"/>
<feColorMatrix type="matrix" values="0 0 0 0 0 0 0 0 0 0 0 0 0 0 0 0 0 0 0.1 0"/>
<feBlend mode="normal" in2="BackgroundImageFix" result="effect1_dropShadow_648_3"/>
<feColorMatrix in="SourceAlpha" type="matrix" values="0 0 0 0 0 0 0 0 0 0 0 0 0 0 0 0 0 0 127 0" result="hardAlpha"/>
<feOffset dy="4"/>
<feGaussianBlur stdDeviation="2"/>
<feComposite in2="hardAlpha" operator="out"/>
<feColorMatrix type="matrix" values="0 0 0 0 0 0 0 0 0 0 0 0 0 0 0 0 0 0 0.1 0"/>
<feBlend mode="normal" in2="effect1_dropShadow_648_3" result="effect2_dropShadow_648_3"/>
<feBlend mode="normal" in="SourceGraphic" in2="effect2_dropShadow_648_3" result="shape"/>
</filter>
<filter id="filter5_d_648_3" x="0" y="0" width="1308" height="83.425" filterUnits="userSpaceOnUse" color-interpolation-filters="sRGB">
<feFlood flood-opacity="0" result="BackgroundImageFix"/>
<feColorMatrix in="SourceAlpha" type="matrix" values="0 0 0 0 0 0 0 0 0 0 0 0 0 0 0 0 0 0 127 0" result="hardAlpha"/>
<feMorphology radius="4" operator="dilate" in="SourceAlpha" result="effect1_dropShadow_648_3"/>
<feOffset dx="2" dy="4"/>
<feGaussianBlur stdDeviation="5"/>
<feComposite in2="hardAlpha" operator="out"/>
<feColorMatrix type="matrix" values="0 0 0 0 0 0 0 0 0 0 0 0 0 0 0 0 0 0 0.25 0"/>
<feBlend mode="normal" in2="BackgroundImageFix" result="effect1_dropShadow_648_3"/>
<feBlend mode="normal" in="SourceGraphic" in2="effect1_dropShadow_648_3" result="shape"/>
</filter>
<filter id="filter6_d_648_3" x="0" y="55.425" width="259" height="711.575" filterUnits="userSpaceOnUse" color-interpolation-filters="sRGB">
<feFlood flood-opacity="0" result="BackgroundImageFix"/>
<feColorMatrix in="SourceAlpha" type="matrix" values="0 0 0 0 0 0 0 0 0 0 0 0 0 0 0 0 0 0 127 0" result="hardAlpha"/>
<feMorphology radius="4" operator="dilate" in="SourceAlpha" result="effect1_dropShadow_648_3"/>
<feOffset dx="2" dy="4"/>
<feGaussianBlur stdDeviation="5"/>
<feComposite in2="hardAlpha" operator="out"/>
<feColorMatrix type="matrix" values="0 0 0 0 0 0 0 0 0 0 0 0 0 0 0 0 0 0 0.25 0"/>
<feBlend mode="normal" in2="BackgroundImageFix" result="effect1_dropShadow_648_3"/>
<feBlend mode="normal" in="SourceGraphic" in2="effect1_dropShadow_648_3" result="shape"/>
</filter>
</defs>
</svg>
